<svg xmlns="http://www.w3.org/2000/svg" viewBox="0 0 305.26 450.19"><defs><style>.cls-1{isolation:isolate;}.cls-2{fill:#8decb4;}.cls-3{fill:#fff;}.cls-4{fill:#5dbfc2;}.cls-5{fill:#e31062;}.cls-6{fill:#89e3c2;}.cls-7{opacity:0.18;}.cls-10,.cls-11,.cls-14,.cls-15,.cls-7{mix-blend-mode:multiply;}.cls-8{fill:#257173;}.cls-9{fill:#c5dbb3;}.cls-10{opacity:0.25;}.cls-11{opacity:0.26;}.cls-12{fill:#ffc782;}.cls-13{fill:#ff126e;}.cls-14{opacity:0.5;}.cls-15{opacity:0.15;}</style></defs><title>Asset 1</title><g class="cls-1"><g id="Layer_2" data-name="Layer 2"><g id="BACKGROUND"><path class="cls-2" d="M171,310.59c-5.37.25-73.94,2.25-122.44-49C-5.82,204-23,92.14,41.54,35.83,100.74-15.83,198,6.11,251,57.48c50.85,49.24,74.42,138.4,33,197.75C249.41,305,185.78,309.92,171,310.59Z"/><circle class="cls-3" cx="57.76" cy="153.36" r="4.8"/><path class="cls-3" d="M88.7,213.49a4.8,4.8,0,1,0,4.8-4.79A4.8,4.8,0,0,0,88.7,213.49Z"/><circle class="cls-3" cx="254.61" cy="197.71" r="8.9"/><circle class="cls-3" cx="102.39" cy="243.83" r="8.9"/><circle class="cls-3" cx="46.65" cy="143.34" r="2.14"/><path class="cls-3" d="M121.18,59a2.15,2.15,0,1,0,2.14-2.15A2.14,2.14,0,0,0,121.18,59Z"/><path class="cls-3" d="M30.49,97.72a2.15,2.15,0,1,0,2.15-2.14A2.15,2.15,0,0,0,30.49,97.72Z"/><path class="cls-3" d="M259.22,168.45a2.15,2.15,0,1,0,2.15-2.14A2.14,2.14,0,0,0,259.22,168.45Z"/><path class="cls-3" d="M248.56,132.49a2.15,2.15,0,1,0,2.14-2.15A2.14,2.14,0,0,0,248.56,132.49Z"/><circle class="cls-3" cx="267.89" cy="180.99" r="4.38"/><path class="cls-3" d="M250.7,105.2a2.15,2.15,0,1,0,2.15-2.14A2.15,2.15,0,0,0,250.7,105.2Z"/><path class="cls-3" d="M62.56,134.12A2.15,2.15,0,1,0,64.7,132,2.14,2.14,0,0,0,62.56,134.12Z"/></g><g id="OBJECTS"><path class="cls-4" d="M79.26,63.72s-8.14,2-13.19,7-3.15,6.67-3.15,6.67S71.88,76.22,79.26,63.72Z"/><path class="cls-5" d="M94.47,86.71A69.06,69.06,0,0,1,107.07,101s25.74-16.1,45.64-26.22c4.59-2.34,10-1.39,12.82,3l.16.24a10,10,0,0,1-3,13.83c-12.84,8.24-37.11,22.86-49.78,24.41-5.55.68-4.4,5.85-12.33-2.17-8.38-8.48-19.81-23.2-24.35-32.68C69.77,67.89,65.91,64.25,65.91,64.25c-1.68-3.46,1.22-8.38,8-3.26C73.86,61,82.54,76.65,94.47,86.71Z"/><path class="cls-5" d="M54.55,66.61a0,0,0,0,1,0,0s0,0,0,0Z"/><path class="cls-5" d="M65.77,63.91s.28-2.35-2.85-9.07c0,0,3.39-9.21,10.63-10.77A8.71,8.71,0,0,1,75,54.7L73.86,61Z"/><path class="cls-3" d="M68.13,29.75h1.32a3.76,3.76,0,0,1,3.76,3.76V67.18a0,0,0,0,1,0,0H64.37a0,0,0,0,1,0,0V33.51a3.76,3.76,0,0,1,3.76-3.76Z" transform="translate(142.51 89.05) rotate(173.67)"/><rect class="cls-3" x="61.01" y="27.59" width="11.34" height="3.65" rx="1.55" transform="translate(136.19 51.31) rotate(173.67)"/><path class="cls-6" d="M70.13,64.88l1-.11a2.73,2.73,0,0,0,2.42-3L70.8,37.37l-6.4.71,2.7,24.38A2.74,2.74,0,0,0,70.13,64.88Z"/><path class="cls-5" d="M74.22,43.78a16.37,16.37,0,0,0-4.71,1c-2.76,1,5.25,4.94,6.19,2.24S74.22,43.78,74.22,43.78Z"/><path class="cls-5" d="M63.9,42.27s7.53,3.22,4.15,3.73c-4.75.71-7.66-2-7.91-2.91-.9-3.07,3.3-2.84,3.3-2.84Z"/><path class="cls-5" d="M63.58,45.35s8,1.47,4.86,2.71c-4.46,1.75-7.91-.3-8.35-1.08-1.56-2.8,2.59-3.5,2.59-3.5Z"/><path class="cls-5" d="M63.39,48.69s8.18.09,5.25,1.86c-4.11,2.48-7.85,1-8.42.34-2-2.5,2-3.89,2-3.89Z"/><path class="cls-5" d="M64.09,53.91s5.19-.54,3.71-2.11-6-1-6.81.82,2.35,2.8,2.35,2.8Z"/><path class="cls-3" d="M141.56,80,108.43,96.09,79.26,63.72S68.64,75.41,62.92,77.34c0,0,37.46,43.92,40.76,44.35s34.69-15.87,34.69-15.87Z"/><g class="cls-7"><path class="cls-8" d="M65.73,75.91C72.3,80.46,78,93.87,88,102.1c4.21,3.44,7.74,4.77,11.11,9.85,1.08,1.63,2.12,3.6,3.53,3.53,2.57-.13,4.22-6.92,4.54-6.82s-2.43,5.76-1,7.33,7.76-.37,27.52-13.89a46.14,46.14,0,0,1,5,.52l-.4,3.2s-31.4,16.31-34.69,15.87S62.92,77.34,62.92,77.34A13.82,13.82,0,0,0,65.73,75.91Z"/></g><path class="cls-9" d="M95.64,442.08c0,4.48,38.16,8.11,85.22,8.11s85.21-3.63,85.21-8.11S227.92,434,180.86,434,95.64,437.6,95.64,442.08Z"/><circle class="cls-5" cx="188.05" cy="10.81" r="10.81" transform="translate(105.63 180.18) rotate(-67.34)"/><g class="cls-10"><path class="cls-8" d="M192.81,12.19c2.14-3.52-1.48-9-1.59-11.71A10.81,10.81,0,1,1,178.05,14.9C181.5,14.48,190.25,16.4,192.81,12.19Z"/></g><path class="cls-5" d="M162,6.47S157.58,8.33,150.6,2.2c-5.79-5.07-15.33,14.8.48,18C156.73,21.31,162,6.47,162,6.47Z"/><g class="cls-10"><path class="cls-8" d="M151.08,14.83,150,19.91a13.19,13.19,0,0,1-2.4-.89c-1.31-1.59-2.69-3.64-2.35-4.89C145.85,11.86,151.08,14.83,151.08,14.83Z"/></g><path class="cls-4" d="M238.27,309.09s-16.55,8.74-54,7.33-75.95-5.07-83.59-16.12c-2.63-3.79,28.3-75.76,50.88-194.67Z"/><path class="cls-8" d="M136,177.86s-2.23,7.39-6.06,20.15-12.77,74-8.09,113.73c2,16.89-4.45,23.56,2.48,35.07,1.42,2.36-.33,21,1.77,31.83,5.61,28.95,4.48,32.66,4.48,32.66h9.8s1-12,4.5-30.88c1.77-9.53,4.31-13.9,3.38-23.05-1.69-16.61-4.56-15.77-4.45-22.35.11-6.85,7.28-19.82,14.49-41,11.43-33.63,12.26-43.68,17.66-108.52Z"/><g class="cls-11"><path class="cls-8" d="M140.37,411.3h-2.7c.2-3.89,1.29,1.44,2.14-11.61,1-15.95-1.05-13.4.4-23.59,2-13.86,6.19-21.14,2.88-31.8-1.66-5.36-3.22-5.13-4.05-9.76-1.58-8.87,3.3-14.59,8-24.73,3-6.46,9.85-21.51,8.72-38.13-.84-12.3-4.52-53.1-.94-60,3.27-6.23,11.74-11.08,16.59-9.06.2.08-.59,36.23-.4,36.33q-.44,3.66-.88,7l0,.32c-.41,3-.84,5.82-1.3,8.53l-.1,0C166.48,268,163.46,278.5,158.19,294c-7.21,21.2-14.37,34.17-14.48,41-.11,6.58,2.76,5.74,4.45,22.34.93,9.16-1.62,13.52-3.39,23.05-3,15.94-3.89,23.63-4.23,28.64,0,.08-.12,1-.09,1.1C140.4,410.89,140.37,411.3,140.37,411.3Z"/></g><path class="cls-12" d="M176.57,40.74l-.91,14.84c0,5.27,1.85,9.3,6.11,12.42l1.57.68L148,86.71l8.95-15c2.47-1.64,3.24-3.76,3.42-6.65l.75-12.81Z"/><g class="cls-7"><path class="cls-8" d="M174.62,67.64c-1.39-2.06-2.55-3.94-3.39-8.86-.67-3.85-6.09.91-9.49.91.56-1,2.83-9.6,3.48-10.53l11.35-8.42-.91,14.84c0,5.27,1.89,11.14,8.17,12.1C183.83,67.68,175.82,69.42,174.62,67.64Z"/></g><path class="cls-8" d="M147.66,188.44s1.12,7.63,3.09,20.81,12.05,67.61,33.18,101.56c9,14.44,6,23.22,17.16,30.68,2.29,1.54,12,24,18.53,32.92,17.39,23.81,21,34.77,21,34.77l9.39-3.11a373.51,373.51,0,0,1-12.68-38c-2.45-9.38-3.65-20.17-8.39-28.06-8.59-14.31-10.08-11.89-12.79-17.9-2.81-6.25-.94-15.7-3.44-38C208.8,248.81,215.88,225.82,190,175Z"/><g class="cls-11"><path class="cls-8" d="M190,175c25.85,50.83,18.77,73.82,22.72,109.12,2.5,22.26.63,31.71,3.44,38,2.71,6,4.2,3.59,12.79,17.9,4.74,7.89,5.94,18.68,8.39,28.06a373.51,373.51,0,0,0,12.68,38l-2.19.74c-1.74-4.35-4.29-10-8.09-20.55-13-36.35-9.43-24.23-12.12-32.57-4-12.37-4.41-15.93-8.71-20.45s-8.91-6.33-11.36-12.5a21.05,21.05,0,0,1-1.13-10.22c3.12-33.87,4.68-50.81-2.28-60.22-2.07-2.81-5.21-5.65-6.81-11.36a26.92,26.92,0,0,1,0-13.63c3.14-14.45-11-32.1-16.79-47.32Z"/></g><path class="cls-5" d="M204.64,101.71c.8-5.3,6.39-18.52-12.4-26.55-10.55-4.52-14.41-8.83-14.41-8.83C145,96,159.57,68.69,159.57,68.69c-5.35,9.73-22.6.52-22.82,32.48,0,6.66-5.63,13.67,2.39,44.1,1.21,4.58,0,14.49-1.34,19a9.25,9.25,0,0,0-.28,1.29l-2,15.85c-4.89,9.47,70.77,7.61,70.54,3-.76-15.46-13-31.94-13-31.94C198.27,99.37,202.24,117.65,204.64,101.71Z"/><path class="cls-5" d="M139.14,98.17s-4.35,14-5.94,19.71c-2.53,9,5.7,16.57,5.7,16.57Z"/><g class="cls-10"><path class="cls-8" d="M135.92,178.1l1.6-12.53a9.25,9.25,0,0,1,.28-1.29c1.37-4.52,2.55-14.43,1.34-19-8-30.43-2.43-37.44-2.39-44.1.15-22,8.35-24.49,15.2-27.07-6.82,12.75-8.95,20.8-9.69,25.48-.17,1-.83,5.47-1.52,10.41-.76,5.4-1.56,11.51-1.76,13.26-1.31,11.6,3.15,18,4.79,30.29,1.19,8.88-.5,10.39-2.65,30.68-.75,7-1.26,17-2.27,36.73-1.63,31.76-2.89,62.63-3.6,81.05a27.9,27.9,0,0,0-13.39,9.92,1.1,1.1,0,0,1,0-.18c-4.68-39.72,4.26-101,8.09-113.73C133.38,186.51,135.52,179.4,135.92,178.1Z"/></g><path class="cls-12" d="M157.35,12.29c-8.78.76-10,8.84-10.69,12.31-.66,3.12-.09,8.52-2.07,10.66-3.91,4.24,4.91,25.32,8.46,25.61,12.81,1.05,24.71-9.46,22.29-31.92C173.26,9.55,168.39,11.34,157.35,12.29Z"/><g class="cls-7"><path class="cls-8" d="M144.59,35.26c2-2.14,1.41-7.54,2.07-10.66l.2-1c1.52,1,2.47,3.27,2.28,5.86a5.18,5.18,0,0,1,3.6-.27A4.82,4.82,0,0,1,155,30.86a6,6,0,0,1,5.95-4c3.05.28,5.28,3.21,5.27,6.68l.93.22A22.28,22.28,0,0,0,169,28c-1.16-2.58-.61-7.87-4.32-10.09-2.73-1.63-4.93.11-9.65-2.17-.09,0-.48-.24-1-.53,1.77.2,4.57.48,9,.87,2.35.21,4.66,2.84,6.73,6.36.2-1.59.41-2.68.88-2.85s1.54-2.75,2.4-2A46,46,0,0,1,175.34,29c1.85,17.19-4.69,27.37-13.6,30.73,2.48-2.52,5.39-5.68,5.09-10.07-.24-3.47-3.35-7.37-2.83-10.63a5.45,5.45,0,0,1-4.26,1.56c-3.26-.29-5.62-3.6-5.27-7.39,0-.23.05-.47.09-.69a4,4,0,0,0-2.21-2,4.42,4.42,0,0,0-3.46.61c-.67,2.61-2.45,4.45-4.4,4.37A1.7,1.7,0,0,1,144.59,35.26Z"/></g><path class="cls-8" d="M135.92,178.1S164.4,192.61,204,174l2.88,12.69-41,8.27L134.7,183.77Z"/><path class="cls-5" d="M151.08,14.83s.71.27,12,1.26c7.53.67,14.67,26.19,14.67,26.19s18.05-19.36-.09-33.17C162.75-2.22,151.08,14.83,151.08,14.83Z"/><g class="cls-10"><path class="cls-8" d="M180.3,39l-.11.15-.34.49-.21.27a3.55,3.55,0,0,1-.23.31,2.37,2.37,0,0,1-.23.3c-.06.09-.12.16-.18.24s-.14.19-.21.27l-.18.22-.17.21a8.24,8.24,0,0,1-1.3-1.14h0c-1.16-3.73-3.92-12-7.35-17.86a22.53,22.53,0,0,0,0-8.62,18.28,18.28,0,0,0-4.69-8.45,15.56,15.56,0,0,1,10.59,2.44l1.9,1.29C191.2,19.44,184.53,32.87,180.3,39Z"/></g><path class="cls-12" d="M180.29,42.28c-1.36,2.7-4.13,4-6.18,3s-2.62-4.06-1.26-6.76,4.13-4.06,6.18-3S181.65,39.58,180.29,42.28Z"/><path class="cls-3" d="M178.75,65.16c4.69,2.79,24.12,9.93,26.57,17.33,5.15,15.61-.17,55.78.71,80s32.24,146.61,32.24,146.61-73.05-4.45-91.28.71c0,0-.77-78.41,8.33-173C157.71,112,178.75,65.16,178.75,65.16Z"/><g class="cls-7"><path class="cls-8" d="M147,309a132,132,0,0,1,19.32-5.65c24.2-5,44-1,49.24-12.12,5.34-11.42-8.77-22-7.58-43.93,2.45-45.08-9.48-84.76-20.7-81.81-15.6,4.1-34.31,12.57-34.63,9.76s15.21-9,24.28-15.05c26.76-17.75,26-62,25.87-67.57s-4.32-13.23-5.16-17.76l.1.06c1.27.84,2.31,1.57,3.18,2.23,2.18,1.73,3.82,3.54,4.42,5.36,1.77,5.37,2.3,13.64,2.28,23.16,0,2.6-.06,5.29-.13,8-.18,6.42-.52,13.16-.82,19.81-.09,1.9-.18,3.8-.26,5.67-.36,8.43-.61,16.5-.36,23.31.88,24.21,32.24,146.61,32.24,146.61s-73.05-4.45-91.28.71v-.1C147,309.58,147,309.34,147,309Z"/></g><path class="cls-3" d="M152.63,73.86a25.29,25.29,0,0,0-13.85,8.67c-5.66,7.16-6.75,20.65-14.17,76.57-5.72,43.09-24,139.28-24,139.28s5.93-6.67,29.35,0l10.26-134.66a103.9,103.9,0,0,0-2.92-33.51L136,124.93a26.11,26.11,0,0,1,1.47-16.74l3.61-12.11a66.15,66.15,0,0,1,11.55-22.22Z"/><path class="cls-4" d="M136.76,96.92a108.83,108.83,0,0,0,8.38-11.16,66.42,66.42,0,0,0-4.06,10.32l-3.61,12.11A26.11,26.11,0,0,0,136,124.93l1.35,5.28a104,104,0,0,1,3.15,22.53l-.33,2.13-8.71-38.56,6.25-13.71Z"/><g class="cls-11"><path class="cls-8" d="M127.8,350.16c1.2,2.1,0,4.51-1,7.82a38.13,38.13,0,0,0-1.7,10.47c-.33-8.46.12-17.41-.47-20.64A5,5,0,0,1,127.8,350.16Z"/></g><g class="cls-11"><path class="cls-8" d="M201.34,341.71a10.11,10.11,0,0,1,2.93,1.38,9.91,9.91,0,0,1,3.5,5.39c2.33,7.34,4,11.83,5.07,14.55C208,353.88,203.15,343.58,201.34,341.71Z"/></g><g class="cls-7"><path class="cls-8" d="M180.29,42.28c-1.36,2.7-4.13,4-6.18,3s-2.62-4.06-1.26-6.76,4.13-4.06,6.18-3S181.65,39.58,180.29,42.28Z"/></g><path class="cls-4" d="M178.75,65.16l.35,23.45-15.26,15.23,6.81,19-19,58S149.32,102.09,178.75,65.16Z"/><path class="cls-3" d="M106.54,145.68h1.32a3.76,3.76,0,0,1,3.76,3.76v33.67a0,0,0,0,1,0,0h-8.84a0,0,0,0,1,0,0V149.45A3.76,3.76,0,0,1,106.54,145.68Z" transform="translate(209.11 332.13) rotate(-178.17)"/><rect class="cls-3" x="102.14" y="143.42" width="11.34" height="3.65" rx="1.55" transform="translate(210.95 293.85) rotate(-178.18)"/><path class="cls-6" d="M106.2,180.84l1,0a2.73,2.73,0,0,0,2.82-2.65l.78-24.52-6.43-.2L103.55,178A2.75,2.75,0,0,0,106.2,180.84Z"/><path class="cls-4" d="M122.47,157.73s-2.83,23.57,5,22.65l.23-.06A21.5,21.5,0,0,0,122.47,157.73Z"/><path class="cls-5" d="M145.8,154.43c8.12-3.52,24.67-6.92,24.67-6.92s13.77-33.14,14-55.46a10,10,0,0,1,9.15-9.89h0a10.26,10.26,0,0,1,11.14,9.06c1.35,15.2-12.36,48.49-16.85,60.44-2,5.23-.1,10.09-11.32,11.22-8.88.89-30.52,5.3-36,5.87-14.8,1.52-20.47.49-20.47.49-3.85-.12-6.86-5,.8-8.56C121,160.68,131.33,160.71,145.8,154.43Z"/><path class="cls-5" d="M117,180.39h0Z"/><path class="cls-5" d="M97.47,162.92c.45-1.62,3.93-3.14,6-3.9a5.26,5.26,0,0,1,2.86-.24c7,1.32,14.82,1.92,14.82,1.92l1.78,5.6a4.28,4.28,0,0,1-2.59,5.29c-9.93,3.8-20.31,1.62-20.31,1.62a21.49,21.49,0,0,1,1.12-6.8C99.51,165.76,97,164.48,97.47,162.92Z"/><path class="cls-5" d="M104.65,162s-6.83,2.11-7.47,4.42,5,4,5,4Z"/><path class="cls-5" d="M104.2,165.46s-6.82,2.12-7.46,4.42,5,4,5,4Z"/><path class="cls-5" d="M104.23,169.36s-6.82,2.12-7.46,4.42c-.33,1.2,1,2.23,2.43,2.93a2.33,2.33,0,0,0,3.29-1.43Z"/><g class="cls-10"><path class="cls-8" d="M123.79,160.5s1,6.86-1,9l1.18,0,2,0h1.2a6,6,0,0,0,.13-3.89C126.56,163.58,124.26,161.5,123.79,160.5Z"/></g><path class="cls-3" d="M122.47,157.73,168,144.42s12-42.9,14.1-54.13c2.71-14.8,14.18-15,14.18-15,26.92,6.54-7.17,85.77-11,89.13s-57.79,16-57.79,16C131.11,174.54,122.47,157.73,122.47,157.73Z"/><path class="cls-13" d="M101,160.84c-1.42.2-3.15,1.67-2.83,2.21a.57.57,0,0,0,.48.2c1.15,0,3.58-1.77,3.27-2.27C101.74,160.74,101.06,160.83,101,160.84Z"/><path class="cls-13" d="M101,164.48c-1.42.19-3.15,1.67-2.83,2.2a.52.52,0,0,0,.48.2c1.15,0,3.58-1.76,3.27-2.27C101.74,164.38,101.06,164.47,101,164.48Z"/><path class="cls-13" d="M100.23,168.17c-1.42.2-3.15,1.67-2.82,2.21,0,0,.12.19.48.2,1.14,0,3.57-1.77,3.26-2.27C101,168.08,100.32,168.16,100.23,168.17Z"/><path class="cls-13" d="M100.23,172.24c-1.42.19-3.15,1.67-2.82,2.2,0,0,.12.2.48.21,1.14,0,3.57-1.77,3.26-2.28C101,172.14,100.32,172.23,100.23,172.24Z"/><path class="cls-13" d="M117.35,162.45c-1.84-2-3.79-1.37-8.28-1.95a29,29,0,0,0-3.63-.47c-1.86.36-2.94,6.54-.79,8.71,2.85,2.88,12.63-.23,13.19-4.55A1.74,1.74,0,0,0,117.35,162.45Z"/><g class="cls-7"><path class="cls-8" d="M128,179.29a6.71,6.71,0,0,0,.25-1l0-.15a12.12,12.12,0,0,0,.07-2.65c7-1.87,15.37-3.51,23.19-5.05,13-2.55,27.16-4.11,27.65-8.71.3-2.87-4.85-5.75-4.17-6.81s5.6,2.7,9.47,1.89c7.26-1.51,9.89-19,11.36-36,2.26-25.95,1.2-38.6,2-45,24,9.2-8.79,85.34-12.52,88.64s-57.79,16-57.79,16a4.74,4.74,0,0,0,.43-.94Z"/></g><g class="cls-14"><path class="cls-8" d="M151.42,28.19a15.06,15.06,0,0,1-.36,3.66,10.26,10.26,0,0,1-1.37,3.51,5,5,0,0,1-.69.77c-.24.22-.42.36-.6.56A1.41,1.41,0,0,0,148,38a3.74,3.74,0,0,0,.8,1.43c.37.46.8.89,1.22,1.34a8.55,8.55,0,0,1-1.56-1,3.68,3.68,0,0,1-1.21-1.56,2.18,2.18,0,0,1,.43-2.1,7.66,7.66,0,0,1,.69-.7,3.75,3.75,0,0,0,.51-.6,13.54,13.54,0,0,0,1.44-3.15C150.7,30.51,151.05,29.36,151.42,28.19Z"/></g><g class="cls-14"><path class="cls-8" d="M159.11,43.18a5.32,5.32,0,0,1-2.06,1.66,6.76,6.76,0,0,1-2.62.66,7,7,0,0,1-2.66-.4,7.45,7.45,0,0,1-1.22-.55,10,10,0,0,1-1.07-.77c.44.08.84.22,1.26.32s.81.2,1.22.24a10.41,10.41,0,0,0,2.42.16,9.77,9.77,0,0,0,2.39-.38A13.15,13.15,0,0,0,159.11,43.18Z"/></g><path class="cls-8" d="M112.84,438.52A54.53,54.53,0,0,1,100,444c-6.53,1.64,11.84,3.75,24.12,1.22,9-1.85,8.57-13.8,10.57-15.09,4.61-3,6.87-6.7,5.32-12.94l-10.54,6.59-9.84,12.54Z"/><path class="cls-8" d="M136.33,444.57s.74-18.71-3.2-10.71l.54-6.83,6.45-3.67-.19,21.21Z"/><path class="cls-8" d="M237.37,443.1c-3.09,1.88-7.9,2.15-12.6,3.87s20.78,2.24,23.81.57c4.48-2.46,5.36-14.84,6-18.43,1.6-8.29,2.73-8.66-1.35-14.92-2.08,3.7-4.22,7-6.38,10.57C245.82,430,245,435.08,243.07,440,240.67,441.88,240.46,441.21,237.37,443.1Z"/><path class="cls-8" d="M263.21,438.93c-1.88-2.54-8.12-12.61-9.12-6.26-.82-2.24-1.1-4.54-2-6.75,1.32-2.08,2.52-4.15,3.89-6.2a98,98,0,0,0,10.1,16.89C265.13,437.4,264.17,438.16,263.21,438.93Z"/><path class="cls-12" d="M237.37,443.1c6.11-6.63,6.7-14.49,7.16-22.89a7.14,7.14,0,0,0-.54-3.13l-3.33-8.1,8.53-2.62,4.09,7.83c1.76,5-3.23,6.78-4.43,11.06-1.57,5.61-3.15,16.15-8.21,18C236.91,444.61,237.37,443.1,237.37,443.1Z"/><path class="cls-12" d="M113,438.44c7.53-4.84,15.11-17.06,17.28-20.74a4.43,4.43,0,0,0,.63-2.26l0-4.14h9.18l-.07,5.36c0,5.39-4.88,4.74-9.11,8.22-5.55,4.56-8.86,14.35-15.26,14.34C111,439.22,113,438.44,113,438.44Z"/><g class="cls-15"><path class="cls-8" d="M148.89,1.4a3.16,3.16,0,0,1,1.71.8c3.94,3.46,7.05,4.37,9,4.51a7.85,7.85,0,0,1-3.41.46A9,9,0,0,1,148.89,1.4Z"/></g><path class="cls-3" d="M174.62,44.17a2.24,2.24,0,1,0,2.24-2.24A2.24,2.24,0,0,0,174.62,44.17Z"/><g class="cls-15"><path class="cls-8" d="M175.69,68.24l2.14-1.91h0c.3-.39.6-.79.91-1.18,1.06.64,2.88,1.49,5.08,2.52C183.83,67.68,178.22,68.89,175.69,68.24Z"/></g><path class="cls-3" d="M154.54,32.31l1.27-.52a5.82,5.82,0,0,0-3.29-3.11c-1.63-.52-3.48-.14-5.49,1.13l.73,1.15c1.65-1,3.11-1.37,4.34-1A4.38,4.38,0,0,1,154.54,32.31Z"/><path class="cls-3" d="M174.69,36.27,165.15,34l.32-1.33,11.08,2.62A5.28,5.28,0,0,0,174.69,36.27Z"/><path class="cls-3" d="M153.8,31.74c-.37,4.08,2.17,7.65,5.68,8s6.66-2.73,7-6.81-2.17-7.66-5.68-8S154.17,27.66,153.8,31.74Z"/><path class="cls-6" d="M160.47,26.37l4.24,9.08a6.11,6.11,0,0,1-2,2.3l-5-10.67A4.82,4.82,0,0,1,160.47,26.37Z"/><path class="cls-6" d="M156,28.76a6.13,6.13,0,0,1,1.15-1.23l4.94,10.59a4.84,4.84,0,0,1-1.49.49Z"/><path class="cls-3" d="M140.58,27.59c-.33,3.66,1.45,6.81,4,7s4.84-2.55,5.18-6.21-1.45-6.82-4-7S140.91,23.93,140.58,27.59Z"/><path class="cls-6" d="M145.54,22.5l3.16,6.76a6.4,6.4,0,0,1-1.57,3.13L143,23.58A3.23,3.23,0,0,1,145.54,22.5Z"/><path class="cls-6" d="M141.61,26a6.29,6.29,0,0,1,.88-1.8l4.06,8.69a3,3,0,0,1-1.45.59Z"/><g class="cls-7"><path class="cls-8" d="M195.18,238.37,168,238.19s1.44,23.49,15.36,23.47S195.18,238.37,195.18,238.37Z"/></g><g class="cls-7"><rect class="cls-8" x="180.61" y="220.46" width="1.99" height="27.83" transform="translate(-54.4 413.85) rotate(-89.48)"/></g><path class="cls-13" d="M61.93,40.74c-1-.09-1.9,1.62-1.5,2.48a.88.88,0,0,0,.43.43c.88.33,2.2-1.64,1.81-2.47A.94.94,0,0,0,61.93,40.74Z"/><path class="cls-13" d="M61.9,44.29c-.95-.09-1.76,1.49-1.38,2.28a.81.81,0,0,0,.39.4c.81.3,2-1.52,1.67-2.28A.83.83,0,0,0,61.9,44.29Z"/><path class="cls-13" d="M61.24,47.94c-1,.09-1.45,1.79-.94,2.5a.78.78,0,0,0,.46.32c.85.15,1.72-1.86,1.23-2.55A.9.9,0,0,0,61.24,47.94Z"/><path class="cls-13" d="M62.24,51.84c-.81.07-1.24,1.52-.8,2.13a.64.64,0,0,0,.39.27c.72.13,1.47-1.59,1.05-2.17A.72.72,0,0,0,62.24,51.84Z"/><path class="cls-5" d="M166.19,23.52c-.36-1.52-3.35-2.72-5.31-2.08-1,.31-1.79,1.12-1.59,1.5s.94.11,2.19.3c2.51.39,3.61,1.87,4.37,1.49C166.28,24.52,166.27,23.87,166.19,23.52Z"/><path class="cls-5" d="M149.53,19.57c-.67-1.22-3.53-1.54-5.06-.53-.76.5-1.27,1.39-1,1.67s.84-.13,1.95-.26c2.25-.26,3.55.75,4.11.25C149.84,20.41,149.68,19.85,149.53,19.57Z"/></g></g></g></svg>