<svg xmlns="http://www.w3.org/2000/svg" xmlns:xlink="http://www.w3.org/1999/xlink" viewBox="0 0 441.57 287.16"><defs><style>.cls-1{isolation:isolate;}.cls-16,.cls-2{fill:#c3d3dd;}.cls-12,.cls-13,.cls-25,.cls-3{fill:#f3f3f3;}.cls-4{fill:#dce8ef;}.cls-5{fill:#b2bcc1;}.cls-6{fill:#efdebf;}.cls-7{fill:#141e46;}.cls-8{fill:#fff;}.cls-9{fill:#fff5e0;}.cls-10{fill:#273668;}.cls-11{fill:#fb6703;}.cls-12,.cls-16{opacity:0.5;mix-blend-mode:screen;}.cls-13{mix-blend-mode:multiply;}.cls-14{fill:#47547c;}.cls-15{fill:#41b06e;}.cls-17{fill:url(#linear-gradient);}.cls-18{fill:url(#linear-gradient-2);}.cls-19{fill:url(#linear-gradient-3);}.cls-20{fill:url(#linear-gradient-4);}.cls-21{fill:url(#linear-gradient-5);}.cls-22{fill:url(#linear-gradient-6);}.cls-23{fill:#5c6970;}.cls-24{fill:#d3807c;}.cls-25{opacity:0.6;}.cls-26{fill:#4560a3;}</style><linearGradient id="linear-gradient" x1="23.78" y1="168.47" x2="37.92" y2="168.47" gradientUnits="userSpaceOnUse"><stop offset="0" stop-color="#f3f3f3"/><stop offset="1" stop-color="#fff"/></linearGradient><linearGradient id="linear-gradient-2" x1="18.73" y1="132.84" x2="36.09" y2="132.84" xlink:href="#linear-gradient"/><linearGradient id="linear-gradient-3" x1="90.48" y1="227.68" x2="90.48" y2="187.12" xlink:href="#linear-gradient"/><linearGradient id="linear-gradient-4" x1="90.48" y1="227.68" x2="90.48" y2="187.12" xlink:href="#linear-gradient"/><linearGradient id="linear-gradient-5" x1="82.4" y1="112.02" x2="103.92" y2="112.02" xlink:href="#linear-gradient"/><linearGradient id="linear-gradient-6" x1="90.48" y1="76.83" x2="90.48" y2="57.31" xlink:href="#linear-gradient"/></defs><title>Asset 1</title><g class="cls-1"><g id="Layer_2" data-name="Layer 2"><g id="OBJECTS"><rect class="cls-2" x="18.15" y="224.32" width="416.22" height="62.24" rx="23.05"/><rect class="cls-2" x="42.99" y="167.9" width="366.53" height="62.24" rx="23.05"/><path class="cls-2" d="M53.89,70.09H378.71a30.82,30.82,0,0,1,30.82,30.82v31.42a0,0,0,0,1,0,0H29.91a0,0,0,0,1,0,0V94.08A24,24,0,0,1,53.89,70.09Z"/><rect class="cls-2" x="75.17" y="16.75" width="288.62" height="62.24" rx="23.05"/><rect class="cls-2" x="105.81" width="90.38" height="62.24" rx="12.9"/><path class="cls-2" d="M29.91,123.53H406.48A16.54,16.54,0,0,1,423,140.06V151.8a17.82,17.82,0,0,1-17.82,17.82H46.76a16.86,16.86,0,0,1-16.86-16.86V123.53A0,0,0,0,1,29.91,123.53Z"/><path class="cls-2" d="M436.37,287.16H5.2A5.2,5.2,0,0,1,0,282H0a5.2,5.2,0,0,1,5.2-5.2H436.37a5.2,5.2,0,0,1,5.2,5.2h0A5.2,5.2,0,0,1,436.37,287.16Z"/><rect class="cls-3" x="326.26" y="254.59" width="40.52" height="23.86" transform="translate(693.05 533.05) rotate(180)"/><rect class="cls-3" x="264.48" y="128.59" width="74.47" height="149.86" transform="translate(603.43 407.05) rotate(180)"/><rect class="cls-4" x="309.09" y="158.77" width="40.52" height="23.86" transform="translate(658.7 341.4) rotate(180)"/><rect class="cls-4" x="298.43" y="128.59" width="40.52" height="28.11" transform="translate(637.38 285.3) rotate(180)"/><rect class="cls-4" x="320.1" y="182.72" width="40.52" height="23.86" transform="translate(680.72 389.31) rotate(180)"/><rect class="cls-4" x="328.79" y="206.68" width="40.52" height="23.86" transform="translate(698.11 437.23) rotate(180)"/><rect class="cls-4" x="339.8" y="230.64" width="40.52" height="23.86" transform="translate(720.12 485.14) rotate(180)"/><rect class="cls-4" x="348.42" y="254.59" width="40.52" height="23.86" transform="translate(737.36 533.05) rotate(180)"/><rect class="cls-5" x="309.09" y="156.71" width="40.52" height="2.06" transform="translate(658.7 315.47) rotate(180)"/><rect class="cls-5" x="320.1" y="180.66" width="40.52" height="2.06" transform="translate(680.72 363.39) rotate(180)"/><rect class="cls-5" x="328.79" y="204.62" width="40.52" height="2.06" transform="translate(698.11 411.3) rotate(180)"/><rect class="cls-5" x="339.8" y="228.58" width="40.52" height="2.06" transform="translate(720.12 459.22) rotate(180)"/><rect class="cls-5" x="348.42" y="252.54" width="40.52" height="2.06" transform="translate(737.36 507.13) rotate(180)"/><path class="cls-6" d="M306.19,92.52c-2.92-.1-4-16.36-3.88-23.29s1.45-12.37,5-12.26,4.58,5.63,4.22,12.56S309.11,92.61,306.19,92.52Z"/><path class="cls-6" d="M296.88,90.82c-2.92-.09-4-16.35-3.88-23.28s1.45-12.38,5-12.26,4.58,5.63,4.22,12.55S299.8,90.92,296.88,90.82Z"/><path class="cls-6" d="M299.38,125l.12,2.6a.67.67,0,0,1-.67.66h-7a.66.66,0,0,1-.4-1.18,10.46,10.46,0,0,1,3.9-1.95c.12,0,1.11-21.91,2.17-21.92S299.38,125,299.38,125Z"/><path class="cls-6" d="M297.65,126c-2.59,0-3.3-22.89-3.3-28s.4-10.57,3.3-10.57S301,92.8,301,97.94,300.24,126,297.65,126Z"/><path class="cls-7" d="M299.5,125.5v2.44a.44.44,0,0,1-.44.44h-7.83a.71.71,0,0,1-.43-1.28,29.1,29.1,0,0,1,4.31-2.34c.32.28.8,1.15,1.37,1.25A15.41,15.41,0,0,0,299.5,125.5Z"/><path class="cls-6" d="M311,126.14v2.45a2.48,2.48,0,0,1-1,1.39c-1.76.75-5.14.3-5.27-.31s.81-1.94,1.56-2.89h0c.48-.61.89-1.06.89-1.06s.95-21.25,1.95-21.22S311,126.14,311,126.14Z"/><path class="cls-6" d="M309.22,127.11c-2.58.23-5-22.51-5.41-27.63s-.57-10.57,2.32-10.83,3.78,5.1,4.25,10.23S311.8,126.87,309.22,127.11Z"/><path class="cls-7" d="M311,126.47v2.12a2.48,2.48,0,0,1-1,1.39c-1.76.75-5.14.3-5.27-.31s.81-1.94,1.56-2.89h0a4.72,4.72,0,0,1,2.53,0,6.43,6.43,0,0,0,1.19.57A6.51,6.51,0,0,0,311,126.47Z"/><path class="cls-6" d="M246.77,39.18c0-1.86,13.67-2.71,17.55-2.8s8,.09,8,2.18-4,2.48-7.91,2.57S246.82,41.05,246.77,39.18Z"/><path class="cls-6" d="M267.34,40.41c-1-1.84,9.19-8.53,13.72-11s8.55-3.7,9.75-1.45-2,4.93-6.64,7.28S268.32,42.26,267.34,40.41Z"/><path class="cls-6" d="M250.25,38.85c.53,2.08-3.1,2.52-4.37,2.77-1.65.33-2.72-1.73-2.82-2.55s2.57-.42,2.71-.63-2.22-.32-2.23-1.1,3.13-1,4.41-.62S249.92,37.55,250.25,38.85Z"/><path class="cls-6" d="M248,36.72c-1.28-.39-4.42-.15-4.41.62s2.37.9,2.23,1.1l3.11-1.37A5.5,5.5,0,0,0,248,36.72Z"/><path class="cls-6" d="M243.12,38.85a2.08,2.08,0,0,1,1.51-.53c.47,0,1,.74,1.39,1.46s-1.15,1.64-1.15,1.64l-1.09-1.09Z"/><path class="cls-8" d="M253.4,41.22a7.18,7.18,0,0,0,1.77.23c2.27.07,11.43.73,15.64-.29,3.16-.78,10.73-2.92,14.29-3.94l1.91-.54,2.32-.59,8.49-2.15,2.23-10.12L294,22.35l-.5,3.8L291.08,25l-.71-.36-3.88,1.9a105.9,105.9,0,0,0-16.31,9s-13.6,1-16.6,1.25Z"/><path class="cls-3" d="M285.1,37.22l1.91-.54,2.32-.59-2.48-9.31a5.77,5.77,0,0,0-1.32,5A15.08,15.08,0,0,1,285.1,37.22Z"/><path class="cls-6" d="M311.3,63.12l-17-2.77L289.58,36l-2.26-8.91,7.42-5.33,5.46-.52c3.11-.29,5.17,1.62,5.93,4.64,0,0,4.6,16.24,5,21.73A111.94,111.94,0,0,1,311.3,63.12Z"/><path class="cls-6" d="M295.52,17.24,297.26,22a6.44,6.44,0,0,1-4,3.21c-1.6.46-2.18-.19-2.18-.19l-.64-2.21Z"/><path class="cls-6" d="M294.92,12.57q.07.33.15.63a1.72,1.72,0,0,0,.07.21c1.17,3.51,0,8-3.28,9.49l-.08,0-.11,0c-.71.31-3.3,1.29-4.59.51A9.39,9.39,0,0,1,283.44,19,22.1,22.1,0,0,1,283,16.3c-.14-.49-.86-2-1.06-2.64-.94-3.17.28-6.93,4.06-8C291.66,4,294,8.71,294.92,12.57Z"/><path class="cls-7" d="M292.4,13.66c-.58-1.12-1.78-1.37-2.61-2.21a3.59,3.59,0,0,1-.59-1.23c-.71-1.65-2.09-1-3.44-.5-.78.31-1.52.83-2.32,1.06a5.88,5.88,0,0,1-3.72-.57A2,2,0,0,1,278.21,8a1.92,1.92,0,0,1,.94-1.55,2.88,2.88,0,0,1,1.64-.21c.79,0,1-.27,1.59-.82A3.19,3.19,0,0,1,284,4.26a7,7,0,0,1,1.59.07,3,3,0,0,0,1.59-.55c4.11-2.27,7.54,2.85,8.62,6.19a16.21,16.21,0,0,1,.12,8.24l-2.59-4.64Z"/><path class="cls-6" d="M293.27,13.11c.42-.24,1.38-.92,1.64.72.46,2.82-1.19,3.12-1.19,3.12,0-.42,0-1-.1-1.67-.51-.14-.05-.64-.13-1a.49.49,0,0,0,0-.2A9.89,9.89,0,0,0,293.27,13.11Z"/><path class="cls-9" d="M293.46,14.12s.36-.63.8-.55.41,1,.27,1.65-.47.74-.57.62.48-.63.17-.81-.56-.15-.58-.3S293.46,14.12,293.46,14.12Z"/><path class="cls-7" d="M291.92,12.25a16,16,0,0,1,.71,2.23c.12.41.19.86.35,1.26.08.2.22.91.49.94s.06-2,0-2.23a9.29,9.29,0,0,0-.15-1.73Z"/><path class="cls-9" d="M289.78,23.6c1.74-.42,3.55-2.77,4-3.71a8.09,8.09,0,0,0,.17-3,1,1,0,0,0,.76-.71s.21.87,0,1.25-.46.52-.47.75.38,3-.83,4.21A6.12,6.12,0,0,1,289.78,23.6Z"/><path class="cls-7" d="M312.2,64.4S311,84.34,311,86.53s.95,30.59.38,38.48a7.68,7.68,0,0,1-4.94,0s-2.84-25.49-3.09-31.62C303.05,87.59,302,75.6,302,75.6s-.61,8.26-.49,11,.08,28.84-1.31,38a7.67,7.67,0,0,1-5-.49s-1.2-31-1.69-37.16-.85-23.77-.85-23.77l18.89-.69Z"/><path class="cls-10" d="M312.58,64.33c-13.84,2.53-20.66,0-20.66,0s-1.36-19.69-2.14-23-3.51-10.32-3.13-12.77a4.46,4.46,0,0,1,3.27-3.73s0-.44.88-.84l.31,1.11,2,1.74.65-3.59.16-.94.47.67c1.09-.41,2.26-1.14,3.39-1.52a17.29,17.29,0,0,1,4.74-.87c3-.07,5.54,7.75,7.84,19.3A138.33,138.33,0,0,1,312.58,64.33Z"/><path class="cls-8" d="M312.48,82.43s1.38-21.35-.11-33.63-5.76-25.45-7.12-27.2c-1.78-2.3-6.77-.46-6.77-.46s-5.16,5.74-4.53,13.6c.39,4.9,3.61,13.6,4,23.82s.5,23.51.5,23.51Z"/><path class="cls-8" d="M286.47,31.31c1.26,5.32,2.93,10,3.58,15.31.08.5.12,1,.17,1.53,0,.67.11,1.38.16,2.11.93,12.35,1.91,31.81,1.91,31.81l3.54-.07s0-22.83-1.41-32c0-.11,0-.22,0-.33-.21-1.35-.42-2.59-.64-3.74-1.25-6.46-2.61-9.84-3.06-11.77a89.67,89.67,0,0,1-.86-9.38A5.2,5.2,0,0,0,286.47,31.31Z"/><path class="cls-4" d="M211.2,26.84l4.68,1.57,63,21.17,3.54,1.18,26.5,8.91a10.17,10.17,0,1,0,6.48-19.29l-12.1-4.06-2.43-.81L222.36,9.13l-4.68-1.57Z"/><path class="cls-4" d="M206.47,22a1.61,1.61,0,1,1-1.6-1.6A1.61,1.61,0,0,1,206.47,22Z"/><path class="cls-4" d="M200.94,51.81a1.61,1.61,0,1,1-1.61-1.6A1.61,1.61,0,0,1,200.94,51.81Z"/><path class="cls-4" d="M200.94,33.92a3.26,3.26,0,1,1-3.26-3.25A3.26,3.26,0,0,1,200.94,33.92Z"/><path class="cls-4" d="M210.2,42.42a3.53,3.53,0,1,1-3.53-3.53A3.54,3.54,0,0,1,210.2,42.42Z"/><path class="cls-11" d="M309.69,57.33a7.7,7.7,0,0,0,4.9-14.61L265.22,26.21l-37.8,3.49Z"/><rect class="cls-4" x="204.76" y="15.52" width="24.04" height="4.93" rx="1.56" transform="translate(130.68 217.75) rotate(-71.43)"/><path class="cls-12" d="M302.66,46.37a1.5,1.5,0,1,1-1.5-1.5A1.5,1.5,0,0,1,302.66,46.37Z"/><path class="cls-12" d="M259.92,28.87a1.5,1.5,0,1,1-1.5-1.5A1.5,1.5,0,0,1,259.92,28.87Z"/><path class="cls-12" d="M264.54,37.63a.63.63,0,0,1-.63.63.63.63,0,1,1,.63-.63Z"/><path class="cls-12" d="M291.05,47.59a.63.63,0,0,1-.63.63.63.63,0,1,1,0-1.26A.63.63,0,0,1,291.05,47.59Z"/><path class="cls-12" d="M309.25,48.45a.63.63,0,1,1-.63-.63A.63.63,0,0,1,309.25,48.45Z"/><path class="cls-12" d="M292.9,37.42a.63.63,0,1,1-.63-.63A.63.63,0,0,1,292.9,37.42Z"/><path class="cls-12" d="M275.18,33.6a.63.63,0,0,1-.63.63.63.63,0,1,1,0-1.26A.63.63,0,0,1,275.18,33.6Z"/><path class="cls-12" d="M285.58,39.66a2.42,2.42,0,1,1-2.42-2.42A2.42,2.42,0,0,1,285.58,39.66Z"/><path class="cls-13" d="M278.86,49.58l3.54,1.18,6.52-.41,1.46-.09a34.49,34.49,0,0,0,4-.6,7.72,7.72,0,0,0,3.11-1.2c2.17-1.79,3.87-5.83,5.1-9.77.24-.8.47-1.6.69-2.37,1.08-4,1.63-7.38,1.63-7.38l-4.06,6.57-1.33,2.15-5,8.11-.77.15-.94.18.52-.89L280,46.55l-.28.72Z"/><polygon class="cls-14" points="289.84 23.82 291.12 25.13 291.09 25.03 290.65 23.51 290.31 23.56 289.84 23.82"/><path class="cls-14" d="M294,22.35l1.54,2.21c1-1.38,2.32-3.06,2.32-3.06L296.59,20Z"/><polygon class="cls-7" points="289.9 24.67 290.02 26.15 291.13 25.17 291.12 25.13 289.84 23.82 289.9 24.67"/><path class="cls-6" d="M295.66,47.06c-2-.62.47-12.64,1.9-17.67s3.45-8.73,5.91-8,2.08,4.95.46,9.92S297.68,47.67,295.66,47.06Z"/><path class="cls-6" d="M272.12,47.88c-.2-1.86,13.4-3.87,17.25-4.29s8-.58,8.18,1.5-3.81,2.81-7.66,3.23S272.32,49.73,272.12,47.88Z"/><path class="cls-6" d="M275.65,47.4c.4,2.17-3.51,2.44-4.84,2.49-2.18.07-2.21-2.32-2.25-3.17s2.36.15,2.51,0-2.25-.49-2.2-1.28,3.28-.82,4.57-.34A2.83,2.83,0,0,1,275.65,47.4Z"/><path class="cls-8" d="M278.8,45l.11,4.31c3.85,0,16.59,0,18.65-2,2.36-2.33,7.29-16.44,8.21-19.94s0-6.51-3.08-6.73-4.43,3.68-5.43,7-3.8,15.05-3.8,15.05S280.1,44.83,278.8,45Z"/><path class="cls-4" d="M210.14,109.71,122,262.35A13.11,13.11,0,0,0,133.36,282H286.92a13.11,13.11,0,0,0,11.35-19.66Z"/><rect class="cls-4" x="189.51" y="43.23" width="41.26" height="160.15"/><rect class="cls-4" x="185.62" y="43.23" width="49.04" height="9.49" rx="2.65"/><path class="cls-10" d="M276.58,275.09H143.7a11.34,11.34,0,0,1-9.82-17l52.81-91.46h46.9l52.8,91.46A11.33,11.33,0,0,1,276.58,275.09Z"/><polygon class="cls-15" points="244.41 185.35 233.59 166.63 186.69 166.63 175.88 185.35 244.41 185.35"/><path class="cls-7" d="M143.7,275.09H276.58a11.33,11.33,0,0,0,10.14-16.4H133.55A11.34,11.34,0,0,0,143.7,275.09Z"/><path class="cls-16" d="M239.37,216.58a2.69,2.69,0,1,1-2.69-2.69A2.7,2.7,0,0,1,239.37,216.58Z"/><path class="cls-16" d="M251.67,261.38a2.69,2.69,0,1,1-2.68-2.69A2.69,2.69,0,0,1,251.67,261.38Z"/><path class="cls-16" d="M180.34,254.71a2.69,2.69,0,1,1-2.68-2.69A2.69,2.69,0,0,1,180.34,254.71Z"/><path class="cls-16" d="M164.4,238.36a2.69,2.69,0,1,1-2.69-2.68A2.68,2.68,0,0,1,164.4,238.36Z"/><path class="cls-16" d="M203.08,240.48a1.13,1.13,0,1,1-1.12-1.13A1.12,1.12,0,0,1,203.08,240.48Z"/><circle class="cls-16" cx="206.21" cy="209.11" r="1.13"/><circle class="cls-16" cx="178.36" cy="190.35" r="1.13"/><circle class="cls-16" cx="224.37" cy="228.08" r="1.13"/><path class="cls-16" d="M149,263.29a1.13,1.13,0,1,1-1.13-1.13A1.14,1.14,0,0,1,149,263.29Z"/><circle class="cls-16" cx="225.98" cy="199.02" r="1.13"/><path class="cls-16" d="M176.29,223.19a1.13,1.13,0,1,1-1.13-1.13A1.14,1.14,0,0,1,176.29,223.19Z"/><path class="cls-16" d="M199.26,260.66a1.13,1.13,0,1,1-1.13-1.13A1.12,1.12,0,0,1,199.26,260.66Z"/><path class="cls-16" d="M193.38,218.89a4.34,4.34,0,1,1-4.34-4.33A4.34,4.34,0,0,1,193.38,218.89Z"/><path class="cls-17" d="M25.25,205.12h0a8.79,8.79,0,0,1-8.79-8.79v-64.5H34v64.5A8.8,8.8,0,0,1,25.25,205.12Z"/><path class="cls-10" d="M32.34,157.67v38.65a7.1,7.1,0,1,1-14.19,0V157.67Z"/><path class="cls-16" d="M29.72,182.55a1.17,1.17,0,1,1-1.17-1.17A1.17,1.17,0,0,1,29.72,182.55Z"/><path class="cls-16" d="M27.83,170.52a1.18,1.18,0,1,1-1.17-1.17A1.17,1.17,0,0,1,27.83,170.52Z"/><path class="cls-16" d="M23.1,189a1.18,1.18,0,1,1-1.17-1.17A1.17,1.17,0,0,1,23.1,189Z"/><circle class="cls-16" cx="22.38" cy="176.38" r="0.49"/><circle class="cls-16" cx="25.51" cy="161.1" r="0.49"/><path class="cls-16" d="M26.76,195.68a.5.5,0,1,1-.49-.49A.49.49,0,0,1,26.76,195.68Z"/><rect class="cls-18" x="15.35" y="131.3" width="19.8" height="3.07" rx="0.52"/><path class="cls-19" d="M90.48,253.51h0a8.79,8.79,0,0,1-8.8-8.79v-64.5H99.27v64.5A8.79,8.79,0,0,1,90.48,253.51Z"/><path class="cls-11" d="M97.57,206.07v38.65a7.1,7.1,0,1,1-14.19,0V206.07Z"/><path class="cls-16" d="M95.14,232.38A1.17,1.17,0,1,1,94,231.21,1.17,1.17,0,0,1,95.14,232.38Z"/><path class="cls-16" d="M93.25,220.35a1.18,1.18,0,1,1-1.17-1.17A1.17,1.17,0,0,1,93.25,220.35Z"/><path class="cls-16" d="M88.52,238.85a1.17,1.17,0,1,1-1.17-1.17A1.17,1.17,0,0,1,88.52,238.85Z"/><circle class="cls-16" cx="87.8" cy="226.22" r="0.49"/><circle class="cls-16" cx="90.93" cy="210.93" r="0.49"/><circle class="cls-16" cx="91.69" cy="245.51" r="0.49"/><rect class="cls-20" x="80.57" y="179.69" width="19.8" height="3.07" rx="0.52"/><path class="cls-21" d="M90.48,148.66h0a8.8,8.8,0,0,1-8.8-8.79V75.37H99.27v64.5A8.8,8.8,0,0,1,90.48,148.66Z"/><path class="cls-15" d="M97.57,101.21v38.65a7.1,7.1,0,1,1-14.19,0V101.21Z"/><path class="cls-16" d="M94.84,129.24a1.18,1.18,0,1,1-1.17-1.18A1.17,1.17,0,0,1,94.84,129.24Z"/><path class="cls-16" d="M93,117.21A1.18,1.18,0,1,1,91.77,116,1.18,1.18,0,0,1,93,117.21Z"/><path class="cls-16" d="M88.22,135.71a1.18,1.18,0,1,1-1.17-1.17A1.17,1.17,0,0,1,88.22,135.71Z"/><path class="cls-16" d="M88,123.07a.49.49,0,1,1-.49-.49A.49.49,0,0,1,88,123.07Z"/><circle class="cls-16" cx="90.63" cy="107.78" r="0.49"/><circle class="cls-16" cx="91.38" cy="142.37" r="0.49"/><rect class="cls-22" x="80.57" y="74.84" width="19.8" height="3.07" rx="0.52"/><rect class="cls-10" x="57.5" y="64.19" width="2.48" height="191.25"/><rect class="cls-10" x="54.24" y="255.44" width="9" height="15.67"/><path class="cls-7" d="M26.77,269H90.71a4.56,4.56,0,0,1,4.56,4.56v5.49a0,0,0,0,1,0,0H22.21a0,0,0,0,1,0,0v-5.49A4.56,4.56,0,0,1,26.77,269Z"/><rect class="cls-10" y="148.3" width="58.56" height="2.48"/><rect class="cls-10" x="59.26" y="193.89" width="58.56" height="2.48"/><rect class="cls-10" x="59.26" y="94.65" width="58.56" height="2.48"/><rect class="cls-7" x="56.11" y="143.29" width="5.26" height="12.54" rx="0.7"/><rect class="cls-7" x="54.07" y="145.02" width="5.26" height="9.07" rx="0.7" transform="translate(206.26 92.86) rotate(90)"/><rect class="cls-7" x="55.89" y="188.86" width="5.26" height="12.54" rx="0.7" transform="translate(117.04 390.25) rotate(180)"/><rect class="cls-7" x="57.93" y="190.59" width="5.26" height="9.07" rx="0.7" transform="translate(255.68 134.57) rotate(90)"/><rect class="cls-7" x="55.89" y="89.44" width="5.26" height="12.54" rx="0.7" transform="translate(117.04 191.42) rotate(180)"/><rect class="cls-7" x="57.93" y="91.17" width="5.26" height="9.07" rx="0.7" transform="translate(156.27 35.15) rotate(90)"/><rect class="cls-7" x="22.64" y="139.92" width="5.26" height="19.24" rx="0.81" transform="translate(174.81 124.27) rotate(90)"/><rect class="cls-7" x="87.84" y="185.04" width="5.26" height="19.24" rx="0.77" transform="translate(285.13 104.19) rotate(90)"/><rect class="cls-7" x="87.99" y="86.5" width="5.26" height="19.24" rx="0.81" transform="translate(186.74 5.49) rotate(90)"/><path class="cls-4" d="M25.83,126.59a3,3,0,0,1-3-3V46.35A13.45,13.45,0,0,1,36.27,32.92H81.09A13.45,13.45,0,0,1,94.53,46.35v20a3,3,0,0,1-6,0v-20a7.44,7.44,0,0,0-7.44-7.43H36.27a7.44,7.44,0,0,0-7.44,7.43v77.24A3,3,0,0,1,25.83,126.59Z"/><path class="cls-3" d="M25.83,124.09a.51.51,0,0,1-.5-.5V46.35A11,11,0,0,1,36.27,35.42H81.09A11,11,0,0,1,92,46.35v20a.5.5,0,0,1-.5.5.5.5,0,0,1-.5-.5v-20a9.94,9.94,0,0,0-9.94-9.93H36.27a9.94,9.94,0,0,0-9.94,9.93v77.24A.5.5,0,0,1,25.83,124.09Z"/><path class="cls-23" d="M101.84,66.6H79.11a1,1,0,0,0-.91,1.27l2.37,7h19.81l2.37-7A1,1,0,0,0,101.84,66.6Z"/><path class="cls-23" d="M36.62,123.53H13.88A1,1,0,0,0,13,124.8l2.38,7h19.8l2.37-7A1,1,0,0,0,36.62,123.53Z"/><path class="cls-6" d="M123.32,281.76c.36-2.52,1.47-6.15,2.06-9s5.78-2.62,4.41,1.3a56.74,56.74,0,0,0-2,6.92,1.8,1.8,0,0,1-1.91,1.87C123.87,283,123.24,282.13,123.32,281.76Z"/><path class="cls-6" d="M122.88,248.78c3-.25,3.2-17,2.74-24.07s-2.15-12.6-5.8-12.3-4.39,6-3.66,13.09S119.89,249,122.88,248.78Z"/><path class="cls-6" d="M108.62,279.65c2.47,1,11.53-20.65,13.5-25.54s3.69-10.22.93-11.33-5.23,3.89-7.21,8.79S106.16,278.66,108.62,279.65Z"/><path class="cls-6" d="M107.08,282.26c1.62,1.11,5,1.83,5.27,1.26s-.22-2.15-.68-3.29h0c-.14-.34-.27-.64-.37-.87s-.2-.44-.2-.44,5.36-21.16,4.37-21.43-8.24,20.71-8.24,20.71l-.1.32-.08.27-.55,1.82C106.43,280.82,105.9,281.46,107.08,282.26Z"/><path class="cls-7" d="M107.08,282.26c1.62,1.11,5,1.83,5.27,1.26s-.22-2.15-.68-3.29h0c-.14-.34-.27-.64-.37-.87-.1.22-.25.53-.37.81-.21.48-.49.49-1.48-.16a17.55,17.55,0,0,0-2.4-1.22s-.64,1.34-.81,1.8C106.14,280.8,105.9,281.46,107.08,282.26Z"/><path class="cls-6" d="M108.55,203.1c2,.83,7.88-10.31,10-15.23s3-9.17.53-10.18-4.87,2.57-6.84,7.56S106.55,202.27,108.55,203.1Z"/><path class="cls-6" d="M119.81,223.67c1.74-.8-3.66-13.83-5.31-17.45s-3.68-7.32-5.63-6.42-.47,4.83,1.19,8.45S118.07,224.47,119.81,223.67Z"/><path class="cls-6" d="M118.37,220.31c-2.12.79-.3,4.38.36,5.58,1.08,2,4.1,2.92,4.86,2.51s-2-4.65-1.92-4.89,1.37,2.17,2,1.71-1-3.32-2.1-4.2A2.92,2.92,0,0,0,118.37,220.31Z"/><path class="cls-6" d="M137.13,249.67c2.93-.64,1-17.25-.42-24.22s-3.78-12.22-7.36-11.44-3.57,6.54-1.92,13.46S134.2,250.31,137.13,249.67Z"/><path class="cls-6" d="M125.11,281.31c2.54.8,10.26-21.39,11.84-26.43s2.86-10.47,0-11.37-4.9,4.31-6.48,9.35S122.57,280.52,125.11,281.31Z"/><path class="cls-7" d="M123.32,281.76v2.5a.46.46,0,0,0,.45.46l8,0a.73.73,0,0,0,.45-1.31,30.08,30.08,0,0,0-4.41-2.43c-.33.29-.83,1.18-1.41,1.28A15.78,15.78,0,0,1,123.32,281.76Z"/><path class="cls-6" d="M158.15,187.13c-1.25-1.43-12.11,7.4-15.07,10s-5.91,5.57-4.51,7.17,4.73-.93,7.7-3.53S159.4,188.56,158.15,187.13Z"/><path class="cls-6" d="M116.08,219.07l18.6-.77.82-31.82-1.28-8-8.6-3.16-5.53,1a6.5,6.5,0,0,0-5.27,6.61l2,22.52Z"/><path class="cls-6" d="M123.55,171.41v6.39a9.46,9.46,0,0,0,4.51.81c1.71,0,2.09-.81,2.09-.81v-2.36Z"/><path class="cls-6" d="M122.81,166.63q0,.35,0,.66v.23c-.16,3.8,2.27,7.86,5.94,8.41l.09,0H129c.79.09,3.63.33,4.66-.82a9.64,9.64,0,0,0,2.31-5.49,21.4,21.4,0,0,0-.31-2.77c0-.53.28-2.19.29-2.91,0-3.38-2.26-6.74-6.31-6.74C123.56,157.23,122.63,162.55,122.81,166.63Z"/><path class="cls-24" d="M134.8,178.27c1.29,1.2,2.29,3.3,2.54,7.59a15.93,15.93,0,0,1-.65,8.51c-2.84,7.07-1.1,15.84-1.1,15.84l-19.27.71s-.41-12.92-1.07-17c-2-12.44,0-16.44,3.48-17.41C123.92,175,133.5,177.07,134.8,178.27Z"/><path class="cls-6" d="M139.56,204.77c2.08-.54.09-12.88-1.15-18.05s-3.13-9-5.66-8.38-2.33,4.95-.91,10.07S137.49,205.3,139.56,204.77Z"/><path class="cls-7" d="M116.12,205.88c.16,4-2.89,9.35-3.36,13.37-1,8.07,4.64,23.19,4.64,24.16s-5.23,14.09-7.25,22.09c0,0,1.14,1.63,6.61,2.62,0,0,8.39-18.26,9.17-22.38s-.18-39.11-.18-39.11Z"/><path class="cls-7" d="M124.6,206.54h10.55a197.45,197.45,0,0,1,4,22.5c1.56,12.93,1.07,16.77.78,18.83s-7.41,21.53-7.41,21.53a12.43,12.43,0,0,1-7.35-1.7s2.4-11.09,4.46-16.2a49.64,49.64,0,0,0,2.28-6.26s-5.93-12.64-7.41-21.67A53.35,53.35,0,0,1,124.6,206.54Z"/><path class="cls-8" d="M107.42,201.39c.37,4,2.82,8.62,4.67,11.66.69,1.13,1.28,2,1.67,2.58l.45.63.1-.34,1.57-5.8.42-1.56-.14-.24L114,204.53l-2.16-3.78,1-1.54.65-1,2.76-4.42,1-1.54-1.85-13.52S106.81,194.94,107.42,201.39Z"/><polygon class="cls-3" points="113.48 198.17 116.24 193.75 114.96 180.36 113.48 198.17"/><path class="cls-3" d="M112.09,213.05c.69,1.13,1.28,2,1.67,2.58l.55.29,1.57-5.8.28-1.8L114,204.53A45.31,45.31,0,0,0,112.09,213.05Z"/><circle class="cls-25" cx="188.97" cy="165.15" r="26.94" transform="translate(-38.22 271.76) rotate(-66.29)"/><circle class="cls-3" cx="179.76" cy="149.16" r="3.26"/><path class="cls-3" d="M174.24,155.39a1.89,1.89,0,1,1-1.88-1.89A1.89,1.89,0,0,1,174.24,155.39Z"/><path class="cls-7" d="M162.65,178.32a30.84,30.84,0,0,1-1.85-4.67,28.44,28.44,0,1,1,1.85,4.67Zm37.44,9.08a24.88,24.88,0,1,0-33.37-11.12A24.89,24.89,0,0,0,200.09,187.4Z"/><path class="cls-7" d="M160.8,173.65l-56.42,28.19a4.81,4.81,0,0,0-2.15,6.45h0a4.8,4.8,0,0,0,6.46,2.16l56.38-28.16a29.17,29.17,0,0,1-2.42-4A30.84,30.84,0,0,1,160.8,173.65Z"/><path class="cls-8" d="M113.37,231c.4.4,27,.5,27,.5A195.74,195.74,0,0,1,136,204.64a32.21,32.21,0,0,1,.48-9.35c.06-.38.13-.77.2-1.16a44.17,44.17,0,0,0,0-13.63,5.74,5.74,0,0,0-4.59-3.58c-2-.4-8.63-1.16-8.63-1.16-3.43-.2-8.11,1.16-8.57,4.24-.7,4.72-.51,13.52.09,20.18s-1.4,8.47-2.42,15.84S113,230.55,113.37,231Z"/><path class="cls-3" d="M136,204.64a32.21,32.21,0,0,1,.48-9.35C134,190.4,130,182.57,130,182.57S131.81,196.16,136,204.64Z"/><path class="cls-8" d="M132.6,192.76s3.85,12.34,6.58,12.34,5.75-2.73,8.55-5.07,7.57-7.49,7.57-7.49l-3.1-3.64-11,8.56s-2.87-16.58-5.07-18.32-7.29-1.77-6.43,3.56A87.08,87.08,0,0,0,132.6,192.76Z"/><path class="cls-7" d="M137.08,161.88a4.93,4.93,0,0,1-.11.61c-.42,1.7-1.75,2.68-1.62,4.54a7.75,7.75,0,0,1-1,4.79c-2.05,3.47.78,2.7.21,8-.28,2.62-2.76,3.7-7.67,3.62s-10.31-.14-10.16-3.83A6.72,6.72,0,0,1,118,176c.94-1.43,1.75-2.63,1.23-4.39a10.6,10.6,0,0,1-.56-2.2c-.11-1.86,1.22-2.46,2.25-3.66s.46-3.48.83-5c1.21-5.07,6.46-5.66,10.72-4.29C135.12,157.24,137.49,158.89,137.08,161.88Z"/><path class="cls-26" d="M344.89,273.44a2,2,0,0,1-.7-3.87l63.68-24-63.68-24a2,2,0,0,1,0-3.74l68.66-25.83a2,2,0,0,1,1.41,3.75l-63.69,23.95,63.69,24a2,2,0,0,1,0,3.74l-68.67,25.83A1.93,1.93,0,0,1,344.89,273.44Z"/><path class="cls-10" d="M413.55,273.44a1.93,1.93,0,0,1-.7-.13l-68.66-25.83a2,2,0,0,1,0-3.74l63.68-24-63.68-23.95a2,2,0,0,1,1.4-3.75l68.67,25.83a2,2,0,0,1,0,3.74l-63.69,24,63.69,24a2,2,0,0,1-.71,3.87Z"/><rect class="cls-7" x="333.12" y="185.94" width="89.26" height="8.83" rx="2.98"/><rect class="cls-7" x="333.12" y="269.5" width="89.26" height="8.83" rx="2.98"/><rect class="cls-4" x="370.43" y="101.76" width="15.45" height="49.59"/><rect class="cls-4" x="368.93" y="101.76" width="18.44" height="4.74" rx="1.03"/><path class="cls-4" d="M404.47,162.85a26.31,26.31,0,0,1-8.38,20.83,8.92,8.92,0,0,1-6.07,2.37H366.29a8.89,8.89,0,0,1-6.06-2.36,26.36,26.36,0,1,1,44.24-20.84Z"/><path class="cls-11" d="M396.76,178.5a11.9,11.9,0,0,1-9.51,4.55h-21a5.94,5.94,0,0,1-4-1.54,23.48,23.48,0,0,1-7.46-17.14,23.13,23.13,0,0,1,3.4-12.11,6.3,6.3,0,0,1,5.39-3c7.38,0,21.34,0,29.16,0a6.28,6.28,0,0,1,5.35,3,23.43,23.43,0,0,1-1.34,26.31Z"/><path class="cls-16" d="M391,164.49a1.77,1.77,0,1,1-1.77-1.76A1.76,1.76,0,0,1,391,164.49Z"/><path class="cls-16" d="M370.84,177.92a1.76,1.76,0,1,1-1.76-1.76A1.76,1.76,0,0,1,370.84,177.92Z"/><path class="cls-16" d="M377.83,171.89a.74.74,0,1,1-.74-.74A.74.74,0,0,1,377.83,171.89Z"/><path class="cls-16" d="M377.6,162.44a.74.74,0,1,1-.74-.74A.74.74,0,0,1,377.6,162.44Z"/><path class="cls-16" d="M392.39,175.08a.74.74,0,1,1-.74-.74A.74.74,0,0,1,392.39,175.08Z"/><path class="cls-16" d="M382.89,156.39a.74.74,0,1,1-.74-.74A.74.74,0,0,1,382.89,156.39Z"/><path class="cls-16" d="M364.6,167.16a.74.74,0,1,1-.74-.74A.74.74,0,0,1,364.6,167.16Z"/><path class="cls-16" d="M371.45,157.72a2.85,2.85,0,1,1-2.84-2.85A2.84,2.84,0,0,1,371.45,157.72Z"/><path class="cls-6" d="M155.81,188.29c.27-.46.7-.95,1.23-.86a.23.23,0,0,1,.16.08.26.26,0,0,1,0,.21l-.36,1.61a14.18,14.18,0,0,1,4.66-2.7.58.58,0,0,1,.43,0,.49.49,0,0,1,.22.27,2.38,2.38,0,0,1-.37,2,9.88,9.88,0,0,1-2.11,2.81,4.81,4.81,0,0,1-3.22,1.26,1.83,1.83,0,0,1-.92-.24C154,191.73,155.12,189.43,155.81,188.29Z"/><path class="cls-4" d="M116.22,118.49a3.39,3.39,0,0,1-3,1.82,2.52,2.52,0,0,1-2.3-1.14v1.3a23,23,0,0,0,.24,3.94h-1.71a16.18,16.18,0,0,1-.3-3.86V109.63H111v6.2c0,1.62.7,3,2.36,3A2.81,2.81,0,0,0,115.9,117a2.74,2.74,0,0,0,.17-1v-6.44H118v7.61c0,1.15.23,1.6,1,1.64l-.15,1.39a1.79,1.79,0,0,1-.65.09c-.93,0-1.69-.52-1.86-1.87Z"/><path class="cls-4" d="M288.93,70.67v-9.8c0-2.47.59-3.85,1.54-4.72a4.57,4.57,0,0,1,3.19-1.1,3.59,3.59,0,0,1,3.85,3.66,3.37,3.37,0,0,1-.49,1.77c-1,.42-1.56,1-1.56,1.76s.43,1.19,1.1,1.88a4.55,4.55,0,0,1,1.76,3.34c0,2-1.48,3.45-3.88,3.45a5.2,5.2,0,0,1-2.3-.46l.35-1.45a4,4,0,0,0,1.82.43,1.87,1.87,0,0,0,2.12-1.82,2.85,2.85,0,0,0-1.17-2.23c-.91-.87-1.69-1.67-1.69-2.88a3,3,0,0,1,1.93-2.67,2.33,2.33,0,0,0,.19-.93,2.15,2.15,0,0,0-2.25-2.36c-1.67,0-2.6,1.17-2.6,4.25v9.88Z"/><path class="cls-4" d="M348.64,91.05h2.14l.13-1c.26-2.14,1.22-4.63,4.14-4.63a3.38,3.38,0,0,1,1.47.32l-.34,1.39a3,3,0,0,0-1.13-.22c-1.47,0-2.12,1.41-2.3,3l-.13,1.13h2.6v1.36h-2.77l-.52,4.45c-.35,2.79-1.24,4.7-3.77,4.7a3.71,3.71,0,0,1-1.69-.35l.35-1.36a2.78,2.78,0,0,0,1.21.24c1.34,0,1.84-1.2,2.1-3.41l.5-4.27h-2Z"/><path class="cls-4" d="M252.71,108.94c0,3.79-2.29,5.74-5.52,5.91v4.47h-1.8v-4.47c-2.82-.1-5.5-1.56-5.5-5.37v-4.77h1.84v4.44c0,3,1.52,4.1,3.68,4.21v-8.65h1.78v8.67c1.93-.11,3.66-1.3,3.66-4.64v-4h1.86Z"/><path class="cls-4" d="M146.07,56.21h8.32V57.8H143.6V56.67l5.07-6.13-4.79-6.07V43.19h9.82v1.56h-7.39v.09l4.46,5.63-4.7,5.68Z"/><path class="cls-4" d="M248.75,62.53A6.56,6.56,0,1,1,255.32,56,6.56,6.56,0,0,1,248.75,62.53Zm0-11.62A5.06,5.06,0,1,0,253.82,56,5.07,5.07,0,0,0,248.75,50.91Z"/><path class="cls-4" d="M256,93.11a2,2,0,0,0,2-2,2,2,0,0,0-.58-1.41,2,2,0,0,0-1.42-.59,2,2,0,0,0-1.41.59A2,2,0,0,0,256,93.11"/><path class="cls-4" d="M283.8,93.11h0a2,2,0,0,0,0-4h0a2,2,0,0,0,0,4Zm-13.91,0h0a2,2,0,0,0,0-4h0a2,2,0,0,0,0,4Z"/><path class="cls-4" d="M297.72,93.11a2,2,0,0,0,0-4,2,2,0,0,0-1.42.59,2,2,0,0,0,0,2.83,2,2,0,0,0,1.42.58"/><path class="cls-4" d="M152.64,123.72h-8.81v-8.81h8.81Zm-7.31-1.5h5.81v-5.81h-5.81Z"/><circle class="cls-4" cx="112.72" cy="25.1" r="1.27"/><path class="cls-4" d="M112.72,38.09A1.28,1.28,0,1,1,114,36.81,1.28,1.28,0,0,1,112.72,38.09Z"/><circle class="cls-4" cx="112.72" cy="48.53" r="1.27"/><circle class="cls-4" cx="112.72" cy="60.24" r="1.27"/><circle class="cls-4" cx="112.72" cy="71.95" r="1.27"/><circle class="cls-4" cx="107.58" cy="30.66" r="1.27"/><circle class="cls-4" cx="107.58" cy="42.37" r="1.27"/><circle class="cls-4" cx="107.58" cy="54.09" r="1.27"/><path class="cls-4" d="M107.58,67.07a1.27,1.27,0,1,1,1.27-1.27A1.27,1.27,0,0,1,107.58,67.07Z"/><circle class="cls-4" cx="107.58" cy="77.51" r="1.27"/><polygon class="cls-4" points="171.93 65.62 171.93 60.37 169.01 60.37 169.01 65.62 163.77 65.62 163.77 68.53 169.01 68.53 169.01 73.77 171.93 73.77 171.93 68.53 177.17 68.53 177.17 65.62 171.93 65.62"/><path class="cls-4" d="M70,164.81a2,2,0,0,0-2,2,2,2,0,0,0,4,0,2,2,0,0,0-.59-1.42A2,2,0,0,0,70,164.81Zm10.32,0h0a2,2,0,0,0,0,4h0a2,2,0,0,0,0-4ZM70,154.59a2,2,0,0,0-1.42.59,2,2,0,0,0,0,2.83,2,2,0,0,0,1.42.58,2,2,0,0,0,0-4Zm10.31,4h0a2,2,0,1,0,0-4h0a2,2,0,0,0,0,4Z"/></g></g></g></svg>