<svg xmlns="http://www.w3.org/2000/svg" xmlns:xlink="http://www.w3.org/1999/xlink" viewBox="0 0 1184.11 744.73"><defs><style>.cls-1,.cls-41{fill:none;}.cls-2{fill:#141e46;}.cls-3{fill:#404e7c;}.cls-4{fill:#dfe3db;}.cls-5{fill:#baf9ff;}.cls-6{fill:#9aced4;}.cls-7{fill:#85b2b8;}.cls-8{fill:#9075fe;}.cls-9{clip-path:url(#clip-path);}.cls-10{fill:#7f67e0;}.cls-11{fill:#a18aff;}.cls-12{fill:#6f5ac4;}.cls-13,.cls-14,.cls-27,.cls-28,.cls-30,.cls-31,.cls-36,.cls-37{opacity:0.27;}.cls-13{fill:url(#Degradado_sin_nombre_7);}.cls-14{fill:url(#Degradado_sin_nombre_7-2);}.cls-15{fill:#c3c7c0;}.cls-16{fill:#6ed698;}.cls-17{clip-path:url(#clip-path-2);}.cls-18{fill:#51bf7d;}.cls-19{fill:#92f4ba;}.cls-20{fill:#41b06e;}.cls-21{fill:#ff77b1;}.cls-22{fill:#d96597;}.cls-23{fill:#ffaa5b;}.cls-24{clip-path:url(#clip-path-3);}.cls-25{fill:#e39751;}.cls-26{fill:#ffb673;}.cls-27{fill:url(#Degradado_sin_nombre_7-3);}.cls-28{fill:url(#Degradado_sin_nombre_7-4);}.cls-29{clip-path:url(#clip-path-4);}.cls-30{fill:url(#Degradado_sin_nombre_7-5);}.cls-31{fill:url(#Degradado_sin_nombre_7-6);}.cls-32{clip-path:url(#clip-path-5);}.cls-33{fill:#ff8cbd;}.cls-34{fill:#b85680;}.cls-35{fill:#cc8849;}.cls-36{fill:url(#Degradado_sin_nombre_7-7);}.cls-37{fill:url(#Degradado_sin_nombre_7-8);}.cls-38{clip-path:url(#clip-path-6);}.cls-39{fill:#fff;}.cls-40{fill:#a2a6a0;}.cls-41{stroke:#404e7c;stroke-miterlimit:10;stroke-width:2px;}.cls-42{fill:#cffbff;}</style><clipPath id="clip-path"><path class="cls-1" d="M657.84,375.85a106.31,106.31,0,1,0,199.13,0Z"/></clipPath><linearGradient id="Degradado_sin_nombre_7" x1="649.12" y1="324.45" x2="746.19" y2="324.45" gradientUnits="userSpaceOnUse"><stop offset="0" stop-color="#fff" stop-opacity="0"/><stop offset="1" stop-color="#fff"/></linearGradient><linearGradient id="Degradado_sin_nombre_7-2" x1="786.79" y1="393.35" x2="865.12" y2="393.35" xlink:href="#Degradado_sin_nombre_7"/><clipPath id="clip-path-2"><path class="cls-1" d="M792.22,648H722.76l-6.25,9.54a18.91,18.91,0,0,0-3,10.33V698a6.47,6.47,0,0,0,6.46,6.46h75a6.46,6.46,0,0,0,6.46-6.46V667.83a18.94,18.94,0,0,0-3.05-10.33Z"/></clipPath><clipPath id="clip-path-3"><path class="cls-1" d="M740.58,579.66c-5.77-4.12-10.65-11.89-4.8-26.28A17.14,17.14,0,0,0,747.6,564a9.78,9.78,0,0,1,6.4,4.82C758.36,577,748.07,585,740.58,579.66Z"/></clipPath><linearGradient id="Degradado_sin_nombre_7-3" x1="710.85" y1="657.44" x2="751.82" y2="657.44" xlink:href="#Degradado_sin_nombre_7"/><linearGradient id="Degradado_sin_nombre_7-4" x1="-3316.24" y1="657.44" x2="-3275.27" y2="657.44" gradientTransform="matrix(-1, 0, 0, 1, -2512.28, 0)" xlink:href="#Degradado_sin_nombre_7"/><clipPath id="clip-path-4"><path class="cls-1" d="M905.61,575.8l-.18,115a9,9,0,0,0,9,9l154.22.25a9,9,0,0,0,9-9l.19-115Z"/></clipPath><linearGradient id="Degradado_sin_nombre_7-5" x1="-17.78" y1="621.92" x2="5.74" y2="621.92" gradientTransform="matrix(1, 0, 0, 1, 918.21, -30.76)" xlink:href="#Degradado_sin_nombre_7"/><linearGradient id="Degradado_sin_nombre_7-6" x1="-2688.05" y1="621.92" x2="-2664.53" y2="621.92" gradientTransform="matrix(-1, 0, 0, 1, -1603.41, -34.79)" xlink:href="#Degradado_sin_nombre_7"/><clipPath id="clip-path-5"><path class="cls-1" d="M582,524.08l-131.73.62L406.83,677.2a15.48,15.48,0,0,0,15,19.73l190.26-.9a15.48,15.48,0,0,0,14.78-19.86Z"/></clipPath><linearGradient id="Degradado_sin_nombre_7-7" x1="368.47" y1="684.86" x2="368.47" y2="343.03" gradientTransform="translate(75.17 13.68) rotate(-0.27)" xlink:href="#Degradado_sin_nombre_7"/><linearGradient id="Degradado_sin_nombre_7-8" x1="-3010.13" y1="684.88" x2="-3010.13" y2="343.04" gradientTransform="matrix(-1, 0, 0, 1, -2426.48, 25.42)" xlink:href="#Degradado_sin_nombre_7"/><clipPath id="clip-path-6"><path class="cls-1" d="M387.66,708a110.13,110.13,0,0,0,54.42-93.11H221.77A110.13,110.13,0,0,0,276.19,708a66.76,66.76,0,0,0,33.86,8.91H353.8A66.76,66.76,0,0,0,387.66,708Z"/></clipPath></defs><title>Asset 1</title><g id="Layer_2" data-name="Layer 2"><g id="OBJECTS"><ellipse class="cls-2" cx="661.38" cy="706.78" rx="468.63" ry="37.95"/><path class="cls-3" d="M757.49,691h0a6.36,6.36,0,0,0,6.35-6.36l-.14-183H751l.16,183A6.35,6.35,0,0,0,757.49,691Z"/><path class="cls-4" d="M763.7,501.61h-3.46l.14,183a6.34,6.34,0,0,1-4.63,6.09,6.26,6.26,0,0,0,1.74.27,6.36,6.36,0,0,0,6.35-6.36Z"/><path class="cls-5" d="M790.46,305.37V185.28H724.35V305.37a112.79,112.79,0,1,0,66.11,0Z"/><path class="cls-6" d="M757.41,519.53a106.32,106.32,0,0,1-31.16-208l4.58-1.4V185.28H784V310.17l4.59,1.4a107.17,107.17,0,0,1,53.88,37.88,105.35,105.35,0,0,1,21.26,63.78A106.43,106.43,0,0,1,757.41,519.53Z"/><rect class="cls-7" x="724.35" y="185.28" width="66.11" height="2.77"/><path class="cls-8" d="M657.84,375.85a106.31,106.31,0,1,0,199.13,0Z"/><g class="cls-9"><path class="cls-10" d="M831.73,375.85s33.7,76.27-40.62,116S661.06,458.1,661.06,458.1l5.17,49.76,57.47,38L857,502.24,881.42,434l-6-53.59-22-13Z"/></g><path class="cls-11" d="M660.61,383.63s-24.2,73.67,54.45,109.54c0,0-43.21-38.46-41.48-88.58,0,0,97.22,16,156.42-13.83C830,390.76,723.27,401.56,660.61,383.63Z"/><path class="cls-12" d="M857,375.85c0,6.32-44.58,11.44-99.56,11.44s-99.57-5.12-99.57-11.44,44.58-11.43,99.57-11.43S857,369.54,857,375.85Z"/><path class="cls-10" d="M709.44,427.6a9.51,9.51,0,1,1-9.5-9.51A9.5,9.5,0,0,1,709.44,427.6Z"/><path class="cls-10" d="M772.31,470.59a9.51,9.51,0,1,1-9.5-9.5A9.5,9.5,0,0,1,772.31,470.59Z"/><path class="cls-10" d="M824.38,427.6a12.32,12.32,0,1,1-12.31-12.32A12.31,12.31,0,0,1,824.38,427.6Z"/><path class="cls-10" d="M767.67,427.6a4.86,4.86,0,1,1-4.86-4.87A4.87,4.87,0,0,1,767.67,427.6Z"/><path class="cls-10" d="M802.05,465a2.3,2.3,0,1,1-2.3-2.29A2.3,2.3,0,0,1,802.05,465Z"/><path class="cls-10" d="M734.2,437.1a2.29,2.29,0,1,1-2.29-2.29A2.29,2.29,0,0,1,734.2,437.1Z"/><path class="cls-10" d="M723.81,465a4.86,4.86,0,1,1-4.86-4.86A4.87,4.87,0,0,1,723.81,465Z"/><path class="cls-13" d="M661.06,458.1s-53.38-91.32,65.56-151.6l1.62-115.7L746,301.48a17.29,17.29,0,0,1-8.13,17.57C713,334.05,651.37,379.61,661.06,458.1Z"/><path class="cls-14" d="M786.79,306.93s129.36,39.32,55.61,172.84C842.4,479.77,874.51,357.92,786.79,306.93Z"/><path class="cls-3" d="M709.69,324.45a101.18,101.18,0,0,0-8.91,6q-4.31,3.21-8.26,6.82A111.52,111.52,0,0,0,678,352.88,101.57,101.57,0,0,0,666.89,371a85.46,85.46,0,0,0-6.44,20.21c-2.8,13.91-1.83,28.43,1.69,42.19A136.37,136.37,0,0,0,669,453.71c1.4,3.28,3,6.5,4.43,9.76l5,9.51c-1.84-3.07-3.68-6.16-5.49-9.26-1.61-3.2-3.31-6.37-4.86-9.62a136.8,136.8,0,0,1-7.4-20.27,98,98,0,0,1-3.54-21.33l-.19-5.43.21-5.43.06-1.35.15-1.35.31-2.7.32-2.7.52-2.67a87.12,87.12,0,0,1,6.76-20.6,93.45,93.45,0,0,1,11.51-18.34A108.07,108.07,0,0,1,709.69,324.45Z"/><path class="cls-3" d="M816.08,325.12a79.64,79.64,0,0,1,21.77,19.44,86.17,86.17,0,0,1,14,25.78,87.91,87.91,0,0,1,3.55,14.3l.3,1.82c.09.61.14,1.22.21,1.83l.4,3.66.2,3.68.09,1.83v1.84a108.37,108.37,0,0,1-4,29,134.22,134.22,0,0,0,2.39-28.94l0-1.81-.14-1.8-.27-3.61-.47-3.58c-.08-.6-.14-1.2-.24-1.8l-.33-1.77a93.58,93.58,0,0,0-9.26-27.23,95.74,95.74,0,0,0-7.68-12.23,98.6,98.6,0,0,0-9.45-11A80.46,80.46,0,0,0,816.08,325.12Z"/><path class="cls-8" d="M753,338.75s14.26-24.69-1-60.07c-8.65-20.09-12.36-43.56-9.08-65.83,3.22-21.88,18.39-39.76,15.43-62.18C755.72,131,744.78,112.9,730,99.9c-9.23-8.09-20.84-13.84-32.55-17.34-16.66-5-37-4.71-44.84-23.45-4.22-10.09-2.12-22.68,5.58-30.45,8-8.08,20.31-10.15,31.69-9.86a101.88,101.88,0,0,1,73,34.22c27.36,31.19,31.63,75.91,14.26,113-31.1,66.34-7.81,94.95-3.14,122.87C777.8,311.93,777,324.52,753,338.75Z"/><path class="cls-10" d="M762.82,53a101.88,101.88,0,0,0-73-34.22c-2.23-.06-4.5,0-6.76.13A101.93,101.93,0,0,1,753.58,53c27.36,31.19,31.63,75.91,14.26,113-31.1,66.34-7.81,94.95-3.14,122.87,3,17.89,3.19,29.48-8.1,40.42a45,45,0,0,1-3.64,9.47c24.06-14.23,24.84-26.82,21-49.89-4.67-27.92-28-56.53,3.14-122.87C794.45,128.93,790.18,84.21,762.82,53Z"/><path class="cls-11" d="M657.84,40.77S648.41,64.92,686,73.5s69.6,23.38,76.66,73.67c-.41-2.92,1.14-7.11,1.21-10.16a60.32,60.32,0,0,0-4.72-24.66C752.85,97.47,741,85.82,727.21,77.77c-14.63-8.54-30.66-10.91-46.29-16.67a38.63,38.63,0,0,1-11-6.56C668,52.93,656.89,43.2,657.84,40.77Z"/><path class="cls-11" d="M748.58,201.92s-10.38,30.79,2.15,62.27A166.89,166.89,0,0,1,748.58,201.92Z"/><path class="cls-3" d="M657.84,40.77a23.45,23.45,0,0,0,1.3,14.82A25.66,25.66,0,0,0,669,66.52a54.54,54.54,0,0,0,13.76,6.24,152.12,152.12,0,0,0,14.93,3.71,75.68,75.68,0,0,1-15.36-2.21,58.12,58.12,0,0,1-7.44-2.41,43.9,43.9,0,0,1-7-3.66,31,31,0,0,1-6-5.18,22.29,22.29,0,0,1-4.13-6.83A21.12,21.12,0,0,1,657.84,40.77Z"/><path class="cls-5" d="M789.68,185.28H725.14a9.71,9.71,0,0,1-9.71-9.71h0a9.7,9.7,0,0,1,9.71-9.71h64.54a9.71,9.71,0,0,1,9.71,9.71h0A9.71,9.71,0,0,1,789.68,185.28Z"/><path class="cls-8" d="M734,344.11a7.6,7.6,0,1,1-7.6-7.6A7.6,7.6,0,0,1,734,344.11Z"/><path class="cls-10" d="M729.36,337.13A7.58,7.58,0,0,1,723.89,350a7.64,7.64,0,0,1-3-.61,7.59,7.59,0,1,0,8.46-12.24Z"/><path class="cls-11" d="M726.11,343.86c-1.23,2.12-3.37,3.18-4.78,2.36s-1.57-3.2-.35-5.32,3.37-3.18,4.78-2.36S727.33,341.74,726.11,343.86Z"/><path class="cls-3" d="M723.73,341.12c-1,1.08-2.17,1.56-2.72,1.07s-.24-1.76.71-2.84,2.18-1.56,2.73-1.07S724.68,340,723.73,341.12Z"/><path class="cls-8" d="M777.64,238.38a5.15,5.15,0,1,1-5.15-5.16A5.15,5.15,0,0,1,777.64,238.38Z"/><path class="cls-10" d="M774.52,233.64a5.15,5.15,0,0,1-3.71,8.72,5.08,5.08,0,0,1-2-.42,5.15,5.15,0,1,0,5.74-8.3Z"/><path class="cls-11" d="M772.31,238.21c-.83,1.44-2.28,2.16-3.24,1.6s-1.06-2.17-.23-3.61,2.28-2.15,3.24-1.6S773.15,236.77,772.31,238.21Z"/><path class="cls-3" d="M770.7,236.35c-.64.73-1.47,1.06-1.85.73s-.15-1.2.49-1.93,1.47-1.06,1.85-.72S771.35,235.62,770.7,236.35Z"/><path class="cls-8" d="M800.27,342.38a11.65,11.65,0,1,1-11.65-11.65A11.65,11.65,0,0,1,800.27,342.38Z"/><path class="cls-10" d="M793.21,331.67a11.64,11.64,0,0,1-13,18.77,11.64,11.64,0,1,0,13-18.77Z"/><path class="cls-11" d="M788.23,342c-1.88,3.25-5.16,4.87-7.33,3.62s-2.41-4.91-.53-8.16,5.16-4.87,7.33-3.62S790.1,338.74,788.23,342Z"/><path class="cls-3" d="M784.59,337.8c-1.46,1.65-3.33,2.39-4.19,1.63s-.35-2.7,1.11-4.35,3.33-2.38,4.18-1.63S786.05,336.15,784.59,337.8Z"/><path class="cls-3" d="M646.76,710.28h0a6.35,6.35,0,0,1-5.47-7.13l35.44-270.23h12.82L653.89,704.81A6.35,6.35,0,0,1,646.76,710.28Z"/><path class="cls-4" d="M686.22,432.92,650.85,704.81a6.35,6.35,0,0,1-4.74,5.32c.22,0,.43.12.65.15a6.35,6.35,0,0,0,7.13-5.47l35.66-271.89Z"/><polygon class="cls-15" points="689.55 432.92 676.73 432.92 676.48 434.81 689.3 434.81 689.55 432.92"/><path class="cls-3" d="M872.56,710.28h0a6.35,6.35,0,0,0,5.47-7.13L842.59,432.92H829.77l35.66,271.89A6.35,6.35,0,0,0,872.56,710.28Z"/><path class="cls-4" d="M833.1,432.92l35.37,271.89a6.35,6.35,0,0,0,4.73,5.32c-.21,0-.42.12-.64.15a6.35,6.35,0,0,1-7.13-5.47L829.77,432.92Z"/><polygon class="cls-15" points="829.77 432.92 842.59 432.92 842.84 434.81 830.02 434.81 829.77 432.92"/><path class="cls-4" d="M875.56,426.25H639.26a11,11,0,0,1-10.45-7.63,10.79,10.79,0,0,0-.52,3.33h0a11,11,0,0,0,11,11h236.3a11,11,0,0,0,11-11h0a10.79,10.79,0,0,0-.52-3.33A11,11,0,0,1,875.56,426.25Z"/><path class="cls-3" d="M639.26,426.25h236.3A11,11,0,0,0,886,418.62,11,11,0,0,0,875.56,411H639.26a11,11,0,0,0-10.45,7.63A11,11,0,0,0,639.26,426.25Z"/><path class="cls-5" d="M775.73,611.79H739.08l-27.53,42.5a24.9,24.9,0,0,0-4,13.54V698a12.37,12.37,0,0,0,12.37,12.37h75A12.37,12.37,0,0,0,807.26,698V667.83a24.9,24.9,0,0,0-4-13.54Z"/><path class="cls-6" d="M719.92,704.43a6.47,6.47,0,0,1-6.46-6.46V667.83a18.91,18.91,0,0,1,3-10.33l29.3-44.71h24l28.5,44.71a18.94,18.94,0,0,1,3.05,10.33V698a6.46,6.46,0,0,1-6.46,6.46Z"/><polygon class="cls-7" points="776.89 613.58 737.92 613.58 738.44 612.79 776.37 612.79 776.89 613.58"/><path class="cls-16" d="M792.22,648H722.76l-6.25,9.54a18.91,18.91,0,0,0-3,10.33V698a6.47,6.47,0,0,0,6.46,6.46h75a6.46,6.46,0,0,0,6.46-6.46V667.83a18.94,18.94,0,0,0-3.05-10.33Z"/><g class="cls-17"><path class="cls-18" d="M792.22,648s26,66.26-78.76,46.42l-2.16,10,9.44,7.94H786l25.46-9.6-2.77-36.91-7.38-20.3Z"/></g><path class="cls-19" d="M716.46,694.38V672.05a34.25,34.25,0,0,1,5.45-18.52l1.57-2.43a199.38,199.38,0,0,0,64.59,0s-29,10.88-55.86,6.4a8.35,8.35,0,0,0-9.31,5.27A114.56,114.56,0,0,0,716.46,694.38Z"/><path class="cls-20" d="M794.07,697.09c0,1.49-16.42,2.7-36.66,2.7s-36.67-1.21-36.67-2.7,16.42-2.71,36.67-2.71S794.07,695.59,794.07,697.09Z"/><ellipse class="cls-20" cx="757.49" cy="647.96" rx="34.73" ry="3.14"/><path class="cls-18" d="M785.85,666.6a3.51,3.51,0,1,1-3.5-3.51A3.51,3.51,0,0,1,785.85,666.6Z"/><path class="cls-18" d="M740.62,681.68a6.13,6.13,0,1,1-6.13-6.12A6.13,6.13,0,0,1,740.62,681.68Z"/><path class="cls-18" d="M753.82,668.27a2.54,2.54,0,1,1-2.54-2.54A2.55,2.55,0,0,1,753.82,668.27Z"/><path class="cls-18" d="M770.43,681.68a2.54,2.54,0,1,1-2.54-2.54A2.55,2.55,0,0,1,770.43,681.68Z"/><path class="cls-21" d="M754.79,694.1c1.6-14.89,6.86-75.62-8.57-116.21a2.67,2.67,0,0,1,.77-3h0a2.72,2.72,0,0,1,4.36,1.33c4.07,14.37,16.79,65.25,9.45,118.45a2.74,2.74,0,0,1-2.38,2.33l-.61.08A2.71,2.71,0,0,1,754.79,694.1Z"/><path class="cls-22" d="M751.35,576.21a2.72,2.72,0,0,0-3.75-1.72,2.68,2.68,0,0,1,2.16,1.92c4.07,14.36,16.8,65.24,9.45,118.44a2.7,2.7,0,0,1-1.82,2.17,2.84,2.84,0,0,0,.42.05l.61-.08a2.74,2.74,0,0,0,2.38-2.33C768.14,641.46,755.42,590.58,751.35,576.21Z"/><path class="cls-23" d="M740.58,579.66c-5.77-4.12-10.65-11.89-4.8-26.28A17.14,17.14,0,0,0,747.6,564a9.78,9.78,0,0,1,6.4,4.82C758.36,577,748.07,585,740.58,579.66Z"/><g class="cls-24"><path class="cls-25" d="M735.78,553.38s-2.06,7.48,7.17,12.09,9.5,14,0,15.43l4.65,3.3,6.42-2.81,3.39-11.58-5-7Z"/></g><path class="cls-26" d="M735.1,558.55S730.86,572,742.39,579c0,0,3.69.46,4.52-2.68C746.91,576.36,734.83,573.13,735.1,558.55Z"/><path class="cls-3" d="M735.1,558.55a21.85,21.85,0,0,0-.41,2.89,23.26,23.26,0,0,0-.09,2.89,20.24,20.24,0,0,0,1,5.63,16.8,16.8,0,0,0,1.1,2.63,18.66,18.66,0,0,0,1.57,2.4,22.91,22.91,0,0,0,4.12,4l-1.24-.78a9.38,9.38,0,0,1-1.21-.85,16.5,16.5,0,0,1-2.12-2.06,14.85,14.85,0,0,1-1.74-2.42,16.94,16.94,0,0,1-2.05-8.6A18,18,0,0,1,735.1,558.55Z"/><rect class="cls-5" x="733.39" y="603.54" width="48.03" height="9.25" rx="1.62"/><path class="cls-20" d="M792.22,648c-.08.38-.49.53-.8.68a9.23,9.23,0,0,1-1,.35c-.71.19-1.43.34-2.15.46-1.44.26-2.9.45-4.36.61-2.92.32-5.84.52-8.77.69-5.86.32-11.73.46-17.6.47s-11.73-.15-17.59-.47c-2.93-.16-5.86-.37-8.78-.69-1.46-.16-2.91-.35-4.36-.61-.72-.12-1.44-.27-2.15-.46a9.77,9.77,0,0,1-1-.35c-.32-.15-.73-.3-.81-.68.09.38.5.52.81.67a9.15,9.15,0,0,0,1,.33c.71.18,1.43.32,2.15.43,1.45.24,2.91.41,4.36.55,2.92.3,5.85.49,8.77.64,5.86.3,11.73.4,17.59.39s11.73-.09,17.59-.39c2.93-.15,5.85-.34,8.77-.64,1.46-.14,2.91-.31,4.36-.55.72-.11,1.44-.25,2.15-.43a9.15,9.15,0,0,0,1-.33C791.72,648.48,792.14,648.34,792.22,648Z"/><path class="cls-27" d="M710.85,701.29V662.41a12.68,12.68,0,0,1,2.1-7l28-41.85h10.89L724.28,654.7a45.3,45.3,0,0,0-6.79,15.89Z"/><path class="cls-28" d="M804,701.29V662.41a12.75,12.75,0,0,0-2.09-7l-28-41.85H763l27.55,41.12a45.48,45.48,0,0,1,6.79,15.89Z"/><path class="cls-3" d="M740.84,617.33c-4,6.21-8.05,12.35-12.13,18.49l-12.35,18.34c-.51.76-1.07,1.53-1.55,2.27a18.27,18.27,0,0,0-2.68,7.55c-.19,1.77-.15,3.65-.23,5.48l-.17,5.53-.38,11-.5,11.05V686L711,675l.08-5.53c.06-1.85,0-3.66.18-5.56a18.94,18.94,0,0,1,2.77-8c.51-.81,1-1.54,1.54-2.31l12.54-18.21C732.29,629.34,736.52,623.3,740.84,617.33Z"/><path class="cls-5" d="M895.79,473.83h191.77a0,0,0,0,1,0,0V695.32a14.37,14.37,0,0,1-14.37,14.37h-163a14.37,14.37,0,0,1-14.37-14.37V473.83a0,0,0,0,1,0,0Z" transform="translate(0.95 -1.58) rotate(0.09)"/><path class="cls-6" d="M914.39,699.76a9,9,0,0,1-9-9l.34-217.06L1078,474,1077.6,691a9,9,0,0,1-9,9Z"/><rect class="cls-7" x="990.17" y="379.64" width="3.38" height="191.77" transform="translate(514.75 1466.62) rotate(-89.91)"/><path class="cls-5" d="M1086,474l-188.25-.31a15,15,0,0,1-15-15h0a15,15,0,0,1,15-15L1086,444a15,15,0,0,1,15,15h0A15,15,0,0,1,1086,474Z"/><path class="cls-16" d="M905.61,575.8l-.18,115a9,9,0,0,0,9,9l154.22.25a9,9,0,0,0,9-9l.19-115Z"/><g class="cls-29"><path class="cls-18" d="M1064.07,576.05a236.26,236.26,0,0,1,0,68.56,49.81,49.81,0,0,1-40.53,41.29c-25.62,4.58-65.73,6.51-118-7.22l-4.23,21.06L933,716.45l124.43.2,43.13-11.2.12-75-9.21-60.27-13.72,5.85Z"/></g><path class="cls-19" d="M910.08,673.3l.14-86.57s61.7,16.61,149.91,1.81c0,0-57.37,30-138.67,14.72C921.46,603.26,926.31,633.64,910.08,673.3Z"/><path class="cls-20" d="M1077.79,576.07c0,6.9-38.57,12.43-86.11,12.36s-86.08-5.73-86.07-12.63,38.56-12.43,86.11-12.36S1077.8,569.17,1077.79,576.07Z"/><path class="cls-18" d="M1051.91,619a8.82,8.82,0,1,1-8.8-8.83A8.81,8.81,0,0,1,1051.91,619Z"/><path class="cls-18" d="M961.29,662.13a10.78,10.78,0,1,1-10.76-10.8A10.78,10.78,0,0,1,961.29,662.13Z"/><path class="cls-18" d="M946.92,620.77a4.43,4.43,0,1,1-4.42-4.43A4.42,4.42,0,0,1,946.92,620.77Z"/><path class="cls-18" d="M1020,657.8a4.43,4.43,0,1,1-4.41-4.44A4.41,4.41,0,0,1,1020,657.8Z"/><path class="cls-18" d="M1016.21,625.31a1.89,1.89,0,1,1-1.88-1.89A1.89,1.89,0,0,1,1016.21,625.31Z"/><path class="cls-18" d="M932,644.26a1.89,1.89,0,1,1-1.89-1.89A1.89,1.89,0,0,1,932,644.26Z"/><path class="cls-18" d="M1044.93,652a1.89,1.89,0,1,1-1.88-1.89A1.88,1.88,0,0,1,1044.93,652Z"/><path class="cls-18" d="M968.93,635.5a3.43,3.43,0,1,1-3.42-3.43A3.43,3.43,0,0,1,968.93,635.5Z"/><polygon class="cls-3" points="992.88 699.88 990.63 699.88 990.41 514.86 992.67 514.7 992.88 699.88"/><rect class="cls-3" x="978.53" y="535.9" width="11.99" height="1.38"/><rect class="cls-3" x="992.79" y="557.85" width="11.99" height="1.38"/><rect class="cls-3" x="978.56" y="574.36" width="11.99" height="1.38"/><rect class="cls-3" x="992.82" y="596.32" width="11.99" height="1.38"/><rect class="cls-3" x="978.58" y="612.83" width="11.99" height="1.38"/><rect class="cls-3" x="992.84" y="634.79" width="11.99" height="1.38"/><rect class="cls-3" x="978.61" y="651.3" width="11.99" height="1.38"/><rect class="cls-3" x="992.87" y="673.26" width="11.99" height="1.38"/><rect class="cls-3" x="978.63" y="689.77" width="11.99" height="1.38"/><path class="cls-30" d="M899.62,477.07l23.51,0s-21.28,132-.36,227.07c0,0-8.73,4.33-16.61-4.66a22.86,22.86,0,0,1-5.45-15Z"/><path class="cls-31" d="M1083.82,477.36l-23.51,0s20.85,132.06-.37,227.07c0,0,8.72,4.36,16.62-4.61a22.89,22.89,0,0,0,5.5-15Z"/><path class="cls-3" d="M911.36,487.62c.21,7.49.29,15,.45,22.48l.24,22.47c.14,15,.1,30,.16,44.95-.1,15-.12,30-.3,45L911.59,645c-.17,7.49-.28,15-.52,22.47-.22-7.49-.3-15-.46-22.48l-.24-22.47c-.13-15-.1-30-.16-45,.11-15,.12-30,.31-44.95l.31-22.47C911,502.6,911.12,495.11,911.36,487.62Z"/><path class="cls-3" d="M1070.09,486.16q1,17.91,1.52,35.81c.41,11.94.7,23.88,1,35.83s.44,23.88.53,35.83.1,23.89,0,35.84q-1-17.9-1.53-35.81c-.4-11.94-.69-23.88-1-35.82s-.44-23.89-.52-35.84S1070,498.11,1070.09,486.16Z"/><path class="cls-16" d="M1037.47,536.92a7.1,7.1,0,1,1-7.67-6.48A7.1,7.1,0,0,1,1037.47,536.92Z"/><path class="cls-18" d="M1032.63,530.78a7.09,7.09,0,0,1-6.91,12.06,7.09,7.09,0,1,0,6.91-12.06Z"/><path class="cls-19" d="M1030.14,537.31c-1,2.07-2.89,3.22-4.27,2.57s-1.71-2.86-.74-4.93,2.88-3.22,4.27-2.57S1031.11,535.23,1030.14,537.31Z"/><path class="cls-3" d="M1027.71,534.94c-.8,1.08-1.9,1.62-2.46,1.21s-.35-1.62.45-2.7,1.9-1.62,2.46-1.21S1028.51,533.86,1027.71,534.94Z"/><path class="cls-16" d="M964.65,535.09a11,11,0,1,1-11.87-10A11,11,0,0,1,964.65,535.09Z"/><path class="cls-18" d="M957.16,525.58a11,11,0,0,1-10.7,18.67,11,11,0,1,0,10.7-18.67Z"/><path class="cls-19" d="M953.3,535.68c-1.51,3.21-4.47,5-6.61,4s-2.65-4.42-1.14-7.63,4.46-5,6.6-4S954.8,532.48,953.3,535.68Z"/><path class="cls-3" d="M949.54,532c-1.24,1.67-2.94,2.5-3.8,1.86s-.55-2.51.69-4.18,2.94-2.5,3.8-1.87S950.78,530.35,949.54,532Z"/><path class="cls-16" d="M1017.43,507.63a4.82,4.82,0,1,1-5.21-4.4A4.82,4.82,0,0,1,1017.43,507.63Z"/><path class="cls-18" d="M1014.14,503.46a4.8,4.8,0,0,1-2.76,8.41,4.93,4.93,0,0,1-1.93-.22,4.82,4.82,0,1,0,4.69-8.19Z"/><path class="cls-19" d="M1012.45,507.89c-.66,1.41-2,2.19-2.89,1.75s-1.17-1.94-.51-3.35,2-2.18,2.9-1.74S1013.11,506.48,1012.45,507.89Z"/><path class="cls-3" d="M1010.8,506.29c-.54.73-1.28,1.1-1.66.82s-.24-1.1.3-1.84,1.29-1.09,1.67-.81S1011.35,505.56,1010.8,506.29Z"/><path class="cls-16" d="M979.19,500.27a7.1,7.1,0,1,1-7.67-6.48A7.1,7.1,0,0,1,979.19,500.27Z"/><path class="cls-18" d="M974.35,494.13a7.09,7.09,0,0,1-6.91,12.06,7.09,7.09,0,1,0,6.91-12.06Z"/><path class="cls-19" d="M971.86,500.66c-1,2.07-2.89,3.22-4.27,2.57s-1.71-2.85-.74-4.93,2.88-3.22,4.27-2.57S972.83,498.58,971.86,500.66Z"/><path class="cls-3" d="M969.43,498.29c-.8,1.08-1.9,1.62-2.46,1.21s-.35-1.62.45-2.7,1.9-1.62,2.45-1.21S970.23,497.22,969.43,498.29Z"/><path class="cls-5" d="M559.27,429.37l-.37-78.55-43.6.2-43.6.21.37,78.55L402,675.83A20.51,20.51,0,0,0,421.82,702L517,701.5l95.13-.45a20.49,20.49,0,0,0,19.56-26.3Z"/><path class="cls-6" d="M421.79,696.93a15.48,15.48,0,0,1-15-19.73l70.26-246.74-.36-75.63,77.17-.36.36,75.63,72.57,246.07A15.48,15.48,0,0,1,612.05,696Z"/><polygon class="cls-7" points="471.48 351.23 559.12 350.82 559.13 354.44 471.71 354.85 471.48 351.23"/><path class="cls-21" d="M582,524.08l-131.73.62L406.83,677.2a15.48,15.48,0,0,0,15,19.73l190.26-.9a15.48,15.48,0,0,0,14.78-19.86Z"/><g class="cls-32"><path class="cls-22" d="M561.16,524.18s18.67,55.82,29,98.92c6,24.95-11.13,53.57-36.57,56.85-32.47,4.19-96.93,8.29-158.14-9.44l.16,16.17,12.3,17.89,90.37,16.21L623.46,707l23.48-60.19-31.52-62.31L582,524.08Z"/></g><path class="cls-33" d="M414.52,668.39,453.59,530s37.22,11.25,104.89,1.76c0,0-34.42,18.67-79.52,17.48a20.47,20.47,0,0,0-20.3,15.46C453.29,585.64,439.14,632.28,414.52,668.39Z"/><path class="cls-34" d="M601,684c0,3.75-37.63,7-84.1,7.19s-84.15-2.65-84.17-6.4,37.64-7,84.1-7.18S601,680.22,601,684Z"/><path class="cls-34" d="M582,524.08c0,2.82-29.47,5.24-65.85,5.41s-65.88-2-65.89-4.79,29.46-5.24,65.84-5.41S582,521.27,582,524.08Z"/><path class="cls-22" d="M568.78,587.33a11.23,11.23,0,1,1-11.28-11.17A11.22,11.22,0,0,1,568.78,587.33Z"/><path class="cls-22" d="M457.89,654a11.23,11.23,0,1,1-11.28-11.17A11.23,11.23,0,0,1,457.89,654Z"/><path class="cls-22" d="M565.16,659.91a4.78,4.78,0,1,1-4.8-4.76A4.78,4.78,0,0,1,565.16,659.91Z"/><path class="cls-22" d="M548.8,625.36a2.3,2.3,0,1,1-2.31-2.28A2.29,2.29,0,0,1,548.8,625.36Z"/><path class="cls-22" d="M472.74,542.5a2.29,2.29,0,1,1-2.3-2.28A2.28,2.28,0,0,1,472.74,542.5Z"/><path class="cls-22" d="M555.12,557.07a2.29,2.29,0,1,1-2.3-2.28A2.29,2.29,0,0,1,555.12,557.07Z"/><path class="cls-22" d="M473.08,615.22a2.29,2.29,0,1,1-2.3-2.28A2.29,2.29,0,0,1,473.08,615.22Z"/><path class="cls-22" d="M480.19,580.27a4.78,4.78,0,1,1-4.81-4.76A4.79,4.79,0,0,1,480.19,580.27Z"/><path class="cls-23" d="M561.79,148.22a5.39,5.39,0,0,0-6.18,4.48L477.45,648a18.37,18.37,0,1,0,11.3,1.8L566.26,154.4A5.39,5.39,0,0,0,561.79,148.22Z"/><path class="cls-25" d="M561.79,148.22a5.33,5.33,0,0,0-2.76.3,5.41,5.41,0,0,1,3.4,5.9L484.92,649.81a18.39,18.39,0,0,1-6.42,34.62c.63.06,1.27.09,1.91.09a18.38,18.38,0,0,0,8.34-34.73L566.26,154.4A5.39,5.39,0,0,0,561.79,148.22Z"/><path class="cls-26" d="M466.41,665.48c0,6,3.35,10.81,7.48,10.81s7.48-4.84,7.48-10.81-3.35-10.82-7.48-10.82S466.41,659.5,466.41,665.48Z"/><polygon class="cls-35" points="535.51 350.93 524.32 350.98 523.75 354.61 534.95 354.56 535.51 350.93"/><path class="cls-5" d="M557.72,350.82l-84.84.4a12.76,12.76,0,0,1-12.83-12.7h0a12.78,12.78,0,0,1,12.71-12.83l84.84-.39A12.77,12.77,0,0,1,570.43,338h0A12.77,12.77,0,0,1,557.72,350.82Z"/><path class="cls-34" d="M582,524.08c0,.37-.38.59-.66.77a6.36,6.36,0,0,1-1,.45,19.91,19.91,0,0,1-2,.62c-1.35.35-2.72.62-4.09.86-2.74.48-5.49.86-8.25,1.2-5.53.63-11.06,1.09-16.61,1.44-11.08.71-22.19,1-33.29,1.07s-22.22-.15-33.31-.76c-5.55-.29-11.09-.7-16.62-1.28-2.76-.31-5.52-.66-8.26-1.12-1.37-.23-2.74-.49-4.1-.82a18.36,18.36,0,0,1-2-.61,5.83,5.83,0,0,1-1-.44c-.28-.17-.64-.39-.66-.76.05.37.41.54.69.7a6.64,6.64,0,0,0,1,.36,19.66,19.66,0,0,0,2,.45c1.35.26,2.73.44,4.1.59,2.75.31,5.51.51,8.28.67,5.52.35,11.06.54,16.59.7q16.62.44,33.24.33t33.22-.64c5.54-.21,11.07-.45,16.6-.85,2.76-.19,5.52-.42,8.26-.75,1.38-.17,2.75-.36,4.1-.63a19.59,19.59,0,0,0,2-.48,6.64,6.64,0,0,0,1-.36C581.57,524.63,581.93,524.45,582,524.08Z"/><rect class="cls-3" x="514.95" y="426.56" width="2.68" height="269.92" transform="matrix(1, 0, 0, 1, -2.64, 2.44)"/><rect class="cls-3" x="517.04" y="436.81" width="14.22" height="1.63" transform="translate(-2.05 2.47) rotate(-0.27)"/><rect class="cls-3" x="500.25" y="456.45" width="14.22" height="1.63" transform="translate(-2.14 2.39) rotate(-0.27)"/><rect class="cls-3" x="517.26" y="482.42" width="14.22" height="1.63" transform="translate(-2.27 2.47) rotate(-0.27)"/><rect class="cls-3" x="500.46" y="502.07" width="14.22" height="1.63" transform="translate(-2.36 2.39) rotate(-0.27)"/><rect class="cls-3" x="517.47" y="528.03" width="14.22" height="1.63" transform="translate(-2.48 2.47) rotate(-0.27)"/><rect class="cls-3" x="500.67" y="547.68" width="14.22" height="1.63" transform="translate(-2.57 2.39) rotate(-0.27)"/><rect class="cls-3" x="517.69" y="573.65" width="14.22" height="1.63" transform="translate(-2.7 2.48) rotate(-0.27)"/><rect class="cls-3" x="500.89" y="593.29" width="14.22" height="1.63" transform="translate(-2.79 2.39) rotate(-0.27)"/><rect class="cls-3" x="517.9" y="619.26" width="14.22" height="1.63" transform="matrix(1, 0, 0, 1, -2.91, 2.47)"/><rect class="cls-3" x="501.1" y="638.91" width="14.22" height="1.63" transform="translate(-3 2.4) rotate(-0.27)"/><rect class="cls-3" x="518.12" y="664.88" width="14.22" height="1.63" transform="translate(-3.12 2.48) rotate(-0.27)"/><rect class="cls-3" x="501.32" y="684.52" width="14.22" height="1.63" transform="translate(-3.21 2.4) rotate(-0.27)"/><path class="cls-21" d="M551.11,493.44a8.42,8.42,0,1,1-8.46-8.38A8.42,8.42,0,0,1,551.11,493.44Z"/><path class="cls-22" d="M546,485.73a8.33,8.33,0,0,1,2.39,5.81A8.42,8.42,0,0,1,540,500a8.18,8.18,0,0,1-3.32-.67,8.41,8.41,0,1,0,9.31-13.6Z"/><path class="cls-33" d="M542.4,493.21c-1.35,2.35-3.71,3.54-5.29,2.64s-1.75-3.54-.41-5.9,3.72-3.54,5.29-2.64S543.74,490.85,542.4,493.21Z"/><path class="cls-3" d="M539.75,490.18c-1,1.2-2.4,1.74-3,1.2s-.27-1.95.78-3.15,2.4-1.73,3-1.19S540.8,489,539.75,490.18Z"/><path class="cls-21" d="M513.71,297.15a13,13,0,1,1-13.1-13A13,13,0,0,1,513.71,297.15Z"/><path class="cls-22" d="M505.75,285.21a13,13,0,0,1-14.42,21.06,13,13,0,1,0,14.42-21.06Z"/><path class="cls-33" d="M500.23,296.78c-2.09,3.65-5.75,5.49-8.19,4.1s-2.72-5.48-.63-9.13,5.75-5.48,8.18-4.09S502.31,293.13,500.23,296.78Z"/><path class="cls-3" d="M496.13,292.11c-1.62,1.85-3.71,2.68-4.67,1.85s-.41-3,1.21-4.88,3.71-2.69,4.67-1.85S497.76,290.25,496.13,292.11Z"/><path class="cls-21" d="M497.67,485.27a5.71,5.71,0,1,1-5.74-5.68A5.71,5.71,0,0,1,497.67,485.27Z"/><path class="cls-22" d="M494.18,480a5.7,5.7,0,0,1-4.06,9.68,5.62,5.62,0,0,1-2.25-.45A5.64,5.64,0,0,0,492,491a5.71,5.71,0,0,0,2.2-11Z"/><path class="cls-33" d="M491.76,485.11c-.91,1.6-2.52,2.4-3.58,1.8s-1.19-2.4-.28-4,2.52-2.4,3.58-1.79S492.67,483.51,491.76,485.11Z"/><path class="cls-3" d="M490,483.06c-.71.82-1.63,1.18-2.05.82s-.18-1.33.53-2.14,1.63-1.18,2.05-.81S490.68,482.25,490,483.06Z"/><path class="cls-21" d="M548.06,421.57a5.71,5.71,0,1,1-5.74-5.69A5.71,5.71,0,0,1,548.06,421.57Z"/><path class="cls-22" d="M544.57,416.34a5.7,5.7,0,0,1-4.06,9.68,5.62,5.62,0,0,1-2.25-.46,5.7,5.7,0,1,0,6.31-9.22Z"/><path class="cls-33" d="M542.15,421.41c-.91,1.6-2.51,2.4-3.58,1.79s-1.19-2.4-.28-4,2.52-2.4,3.59-1.79S543.07,419.81,542.15,421.41Z"/><path class="cls-3" d="M540.36,419.36c-.71.81-1.63,1.17-2.05.81s-.18-1.32.53-2.14,1.63-1.17,2-.81S541.07,418.54,540.36,419.36Z"/><path class="cls-21" d="M522.59,268a5.71,5.71,0,1,1-5.73-5.68A5.7,5.7,0,0,1,522.59,268Z"/><path class="cls-22" d="M519.11,262.8a5.71,5.71,0,0,1-6.32,9.23,5.71,5.71,0,1,0,6.32-9.23Z"/><path class="cls-33" d="M516.69,267.87c-.92,1.6-2.52,2.41-3.59,1.8s-1.19-2.4-.28-4,2.52-2.4,3.59-1.79S517.6,266.28,516.69,267.87Z"/><path class="cls-3" d="M514.89,265.83c-.71.81-1.62,1.17-2,.81s-.18-1.33.53-2.14,1.62-1.18,2-.81S515.6,265,514.89,265.83Z"/><path class="cls-21" d="M508.34,387.4a8.42,8.42,0,1,1-8.46-8.38A8.43,8.43,0,0,1,508.34,387.4Z"/><path class="cls-22" d="M503.19,379.68a8.41,8.41,0,0,1-6,14.28,8.52,8.52,0,0,1-3.32-.67,8.42,8.42,0,1,0,9.31-13.61Z"/><path class="cls-33" d="M499.63,387.16c-1.35,2.36-3.71,3.54-5.29,2.64s-1.75-3.53-.41-5.89,3.72-3.54,5.29-2.64S501,384.8,499.63,387.16Z"/><path class="cls-3" d="M497,384.14c-1,1.2-2.4,1.74-3,1.2s-.27-1.95.78-3.15,2.4-1.74,3-1.2S498,382.94,497,384.14Z"/><path class="cls-36" d="M484,397.32l-7.22-42.49.36,75.63L406.24,680.77c-1.81,15.92,15.55,16.16,15.55,16.16l59.36-231.62A163.45,163.45,0,0,0,484,397.32Z"/><path class="cls-37" d="M547,397l6.82-42.55.35,75.63,73.2,249.63c2,15.9-15.4,16.3-15.4,16.3L550.4,465A163.37,163.37,0,0,1,547,397Z"/><path class="cls-3" d="M477.66,451.36c-2.42,9.1-5,18.17-7.43,27.26l-7.62,27.21C457.5,524,452.23,542,447.05,560.15c-5.34,18.06-10.59,36.15-16,54.19l-8.16,27.06c-2.79,9-5.51,18-8.36,27,2.41-9.11,5-18.18,7.42-27.27l7.63-27.21c5.1-18.13,10.37-36.21,15.56-54.32,5.34-18.06,10.59-36.15,16-54.19l8.16-27C472.08,469.35,474.81,460.34,477.66,451.36Z"/><path class="cls-3" d="M554.62,451c2.13,6.34,4.15,12.72,6.22,19.07l6,19.12c4,12.76,7.81,25.57,11.72,38.35,3.76,12.82,7.6,25.62,11.29,38.47l5.48,19.29c1.76,6.44,3.58,12.87,5.28,19.34-2.13-6.34-4.14-12.71-6.22-19.06l-6-19.13c-4-12.75-7.81-25.56-11.72-38.34-3.75-12.83-7.6-25.63-11.28-38.48l-5.48-19.28C558.15,463.89,556.32,457.46,554.62,451Z"/><path class="cls-3" d="M387.66,708a110.13,110.13,0,0,0,54.42-93.11H221.77A110.13,110.13,0,0,0,276.19,708a66.76,66.76,0,0,0,33.86,8.91H353.8A66.76,66.76,0,0,0,387.66,708Z"/><g class="cls-38"><path class="cls-4" d="M421.14,630.06s-20.33,111.11-170.66,69.46l45.23,43.92,36.21-4.55,62.71-15.72,33.84-33.74,15.61-46.85v-40Z"/></g><path class="cls-39" d="M226.08,626s11.54,53.35,43.72,73.21a100.36,100.36,0,0,1-19.55-24,17.92,17.92,0,0,1,17.89-27c32,4.58,86,7.39,144.06-10.86C412.2,637.37,282.53,658.36,226.08,626Z"/><ellipse class="cls-39" cx="331.92" cy="614.92" rx="110.16" ry="25.81"/><path class="cls-15" d="M331.92,634.23c-28,0-54.5-2.48-74.63-7-26.53-5.93-29-12.31-29-12.37h0s2.56-6.35,29-12.27c20.13-4.51,46.63-7,74.63-7s54.51,2.48,74.64,7c26.53,5.93,29,12.31,29,12.37h0s-2.56,6.35-29,12.27C386.43,631.75,359.92,634.23,331.92,634.23Z"/><path class="cls-40" d="M331.92,634.23c28,0,54.51-2.48,74.64-7,.74-.16,1.39-.33,2.09-.49l-2.09-.5c-20.13-4.5-46.64-7-74.64-7s-54.5,2.48-74.63,7l-2.09.5c.7.16,1.35.33,2.09.49C277.42,631.75,303.92,634.23,331.92,634.23Z"/><path class="cls-4" d="M331.92,602.12c28,0,54.51,2.48,74.64,7,14.61,3.27,21.92,6.68,25.55,9.08,2.93-1.94,3.46-3.21,3.47-3.21s-2.49-6.44-29-12.37c-20.13-4.51-46.64-7-74.64-7s-54.5,2.48-74.63,7c-26.46,5.92-29,12.27-29,12.27s.52,1.33,3.47,3.3c3.63-2.4,10.94-5.8,25.55-9.07C277.42,604.6,303.92,602.12,331.92,602.12Z"/><path class="cls-3" d="M226.08,626a109.55,109.55,0,0,0,6.07,20.48A133.32,133.32,0,0,0,253.92,683c2.19,2.81,4.71,5.33,7.16,7.93,1.18,1.34,2.53,2.5,3.83,3.73l3.9,3.67-4.08-3.47c-1.35-1.18-2.76-2.29-4-3.58-2.52-2.54-5.12-5-7.4-7.78a118.66,118.66,0,0,1-21.9-36.75c-1.26-3.36-2.32-6.78-3.28-10.23A82.33,82.33,0,0,1,226.08,626Z"/><path class="cls-3" d="M351.8,605.52c18.17-2.64,68.36-13.18,90.73-50.72a18.85,18.85,0,0,0,.44-18.27l.08,0c-.12-.19-.26-.36-.38-.54s-.19-.4-.31-.59l-.08,0a18.88,18.88,0,0,0-16.38-8.11c-44.21,2.39-77.14,42.92-87.49,57.31a25.22,25.22,0,1,0,13.39,20.93Z"/><path class="cls-4" d="M351.8,605.52c18.17-2.64,68.36-13.18,90.73-50.72a18.85,18.85,0,0,0,.44-18.27l.08,0c-.12-.19-.26-.36-.38-.54s-.19-.4-.31-.59l-.08,0a19,19,0,0,0-2.83-3.17,18.63,18.63,0,0,1-1.93,14.29c-22.37,37.54-72.56,48.07-90.74,50.72a25.24,25.24,0,0,1-43.9,18.3,25.24,25.24,0,0,0,48.92-10Z"/><path class="cls-39" d="M435.55,534.57S392.91,517,340,588.64c0,0-22.68-15.68-35,14.67,0,0,13.29-22.47,37.44-10.67C342.37,592.64,379.16,530.8,435.55,534.57Z"/><rect class="cls-3" x="914.14" y="86.37" width="82.51" height="8.06" transform="matrix(0.39, 0.92, -0.92, 0.39, 661.95, -823.29)"/><rect class="cls-3" x="1014.25" y="148.17" width="82.51" height="8.06" transform="translate(2120.29 93.07) rotate(168.62)"/><path class="cls-8" d="M1014.93,181.84a40.85,40.85,0,1,1-5.78-57.48A40.86,40.86,0,0,1,1014.93,181.84Z"/><path class="cls-10" d="M1012.66,127.59a36.91,36.91,0,0,1-69.93,23.65,40.85,40.85,0,1,0,69.93-23.65Z"/><path class="cls-11" d="M985.91,155.09c-11.54,5.92-24.54,3.63-29-5.13s1.22-20.66,12.76-26.58,24.54-3.63,29,5.13S997.46,149.16,985.91,155.09Z"/><path class="cls-3" d="M953.06,139.65a34.07,34.07,0,0,1,6.89-10.2,31.75,31.75,0,0,1,10.22-7.15,30.15,30.15,0,0,1,6-1.78,29.33,29.33,0,0,1,6.27-.34,31,31,0,0,1,11.87,3.3,44.85,44.85,0,0,0-11.91-1.74,30.3,30.3,0,0,0-11.49,2.4,36.49,36.49,0,0,0-9.92,6.43A51.38,51.38,0,0,0,953.06,139.65Z"/><path class="cls-16" d="M962.15,46.17a22.54,22.54,0,1,1-25.74-18.8A22.55,22.55,0,0,1,962.15,46.17Z"/><path class="cls-18" d="M939,27.12a20.37,20.37,0,0,1-16,37.44,22.54,22.54,0,1,0,16-37.44Z"/><path class="cls-19" d="M940.47,48.23c-1.81,6.93-7.54,11.42-12.79,10s-8-8.1-6.23-15,7.55-11.42,12.8-10S942.29,41.31,940.47,48.23Z"/><path class="cls-3" d="M924.08,57.7a16,16,0,0,1-2.26-6.29,17.93,17.93,0,0,1,.29-6.8l.2-.83.29-.81a14,14,0,0,1,.62-1.6l.8-1.52a11.29,11.29,0,0,1,1-1.41,16.36,16.36,0,0,1,2.24-2.53,22.21,22.21,0,0,1,2.68-2c-.62,1-1.35,1.74-1.94,2.65a27.34,27.34,0,0,0-1.66,2.71,21.65,21.65,0,0,0-2.24,5.81,24.17,24.17,0,0,0-.69,6.2A35.54,35.54,0,0,0,924.08,57.7Z"/><circle class="cls-21" cx="1089.3" cy="142.66" r="22.54" transform="translate(756.69 1189.7) rotate(-79.84)"/><path class="cls-22" d="M1111,148.69A20.36,20.36,0,0,1,1080.22,122,22.53,22.53,0,1,0,1111,148.69Z"/><path class="cls-33" d="M1090.46,143.66c-6-3.84-8.59-10.66-5.68-15.25s10.17-5.19,16.21-1.36,8.58,10.66,5.67,15.25S1096.5,147.49,1090.46,143.66Z"/><path class="cls-3" d="M1086.87,124.08a14.4,14.4,0,0,1,7.09-.21,16.73,16.73,0,0,1,6.62,2.94,18.29,18.29,0,0,1,4.78,5.41,8.91,8.91,0,0,1,.83,1.59l.71,1.63a35.31,35.31,0,0,1,.92,3.42c-.67-1-1.2-2-1.8-3l-1-1.42-.47-.7a8.38,8.38,0,0,0-.52-.66c-.36-.44-.71-.87-1-1.31s-.77-.8-1.15-1.2c-.2-.2-.38-.4-.57-.6l-.63-.54c-.43-.34-.82-.73-1.28-1l-1.35-.95-1.44-.8a22.91,22.91,0,0,0-3-1.3A25.28,25.28,0,0,0,1086.87,124.08Z"/><ellipse class="cls-41" cx="323.87" cy="126.99" rx="107.33" ry="50.76" transform="translate(194.53 449.92) rotate(-89.58)"/><ellipse class="cls-41" cx="323.87" cy="126.99" rx="50.76" ry="107.33" transform="translate(194.53 449.92) rotate(-89.58)"/><ellipse class="cls-41" cx="323.87" cy="126.99" rx="107.33" ry="50.76" transform="translate(4.06 263.88) rotate(-44.58)"/><path class="cls-41" d="M287.71,162.62c-41.61-42.22-59.15-92.4-39.19-112.07S318.41,49.14,360,91.36s59.15,92.4,39.19,112.07S329.32,204.84,287.71,162.62Z"/><path class="cls-21" d="M349.4,120.14A26.44,26.44,0,1,1,317,101.45,26.43,26.43,0,0,1,349.4,120.14Z"/><path class="cls-22" d="M320,100.83a23.89,23.89,0,0,1-14,45.68,26.44,26.44,0,1,0,14-45.68Z"/><path class="cls-33" d="M324.38,125.28c-1.25,8.3-7.37,14.26-13.67,13.31s-10.39-8.44-9.14-16.75,7.37-14.26,13.67-13.32S325.63,117,324.38,125.28Z"/><path class="cls-5" d="M251.48,65a11.34,11.34,0,1,1-13.89-8A11.34,11.34,0,0,1,251.48,65Z"/><path class="cls-6" d="M238.88,56.67a10.24,10.24,0,0,1-6,19.59,11.34,11.34,0,1,0,6-19.59Z"/><path class="cls-42" d="M240.74,67.15c-.53,3.56-3.16,6.12-5.86,5.72s-4.46-3.63-3.92-7.19,3.16-6.12,5.86-5.71S241.28,63.59,240.74,67.15Z"/><path class="cls-23" d="M419.08,70.21a11.34,11.34,0,1,1-13.89-8A11.34,11.34,0,0,1,419.08,70.21Z"/><path class="cls-25" d="M406.48,61.93a10.24,10.24,0,0,1-6,19.59,11.34,11.34,0,1,0,6-19.59Z"/><path class="cls-26" d="M408.34,72.41c-.53,3.56-3.16,6.12-5.86,5.71s-4.46-3.62-3.92-7.18,3.16-6.12,5.86-5.71S408.88,68.85,408.34,72.41Z"/><path class="cls-5" d="M390.61,208.4a11.34,11.34,0,1,1-13.89-8A11.33,11.33,0,0,1,390.61,208.4Z"/><path class="cls-6" d="M378,200.12a10.25,10.25,0,0,1-.37,19.69,10.09,10.09,0,0,1-5.64-.1,11.34,11.34,0,1,0,6-19.59Z"/><path class="cls-42" d="M379.88,210.6c-.53,3.57-3.16,6.12-5.86,5.72s-4.46-3.63-3.92-7.19,3.16-6.12,5.86-5.71S380.42,207,379.88,210.6Z"/><path class="cls-23" d="M250.68,175.07a11.34,11.34,0,1,1-13.89-8A11.34,11.34,0,0,1,250.68,175.07Z"/><path class="cls-25" d="M238.08,166.79a10.24,10.24,0,0,1-6,19.59,11.34,11.34,0,1,0,6-19.59Z"/><path class="cls-26" d="M239.94,177.27c-.53,3.56-3.16,6.12-5.86,5.72s-4.46-3.63-3.92-7.19,3.16-6.12,5.86-5.71S240.48,173.71,239.94,177.27Z"/><polygon class="cls-41" points="562.68 19.32 531.1 7.51 505.07 28.95 510.63 62.21 542.21 74.03 568.24 52.58 562.68 19.32"/><polygon class="cls-41" points="283.42 413.11 249.94 409.1 229.73 436.09 243 467.09 276.48 471.1 296.69 444.11 283.42 413.11"/><polygon class="cls-41" points="338.33 391.48 304.85 387.47 284.64 414.46 297.91 445.47 331.39 449.47 351.6 422.48 338.33 391.48"/><polygon class="cls-41" points="290.39 354.88 256.91 350.88 236.7 377.87 249.97 408.87 283.45 412.88 303.66 385.88 290.39 354.88"/><polygon class="cls-41" points="1048 294.38 1019.43 270.64 984.59 283.51 978.32 320.12 1006.88 343.86 1041.73 330.99 1048 294.38"/><polygon class="cls-41" points="1111.27 305.75 1082.7 282.01 1047.86 294.88 1041.58 331.49 1070.15 355.23 1104.99 342.36 1111.27 305.75"/><circle class="cls-3" cx="628.81" cy="240.64" r="5.05"/><path class="cls-3" d="M396.05,307.25a5,5,0,1,1-5.05-5A5,5,0,0,1,396.05,307.25Z"/><path class="cls-3" d="M1184.11,618.18a5,5,0,1,1-5-5A5,5,0,0,1,1184.11,618.18Z"/><circle class="cls-3" cx="167.65" cy="5.05" r="5.05"/><circle class="cls-3" cx="1154.88" cy="49.64" r="5.05"/><path class="cls-3" d="M904.66,311.71a5,5,0,1,1-5-5A5,5,0,0,1,904.66,311.71Z"/><path class="cls-3" d="M10.09,644.82a5,5,0,1,1-5-5A5,5,0,0,1,10.09,644.82Z"/></g></g></svg>