<svg xmlns="http://www.w3.org/2000/svg" xmlns:xlink="http://www.w3.org/1999/xlink" viewBox="0 0 15.6 31.02"><defs><style>.cls-1{fill:none;}.cls-2{opacity:0.2;}.cls-3{clip-path:url(#clip-path);}.cls-4{opacity:0.3;}.cls-5{fill:#006380;}.cls-6{fill:#006;}</style><clipPath id="clip-path" transform="translate(3.68 3.48)"><rect class="cls-1" width="25" height="25" transform="translate(25) rotate(90)"/></clipPath></defs><title>Asset 1</title><g id="Layer_2" data-name="Layer 2"><g id="Layer_1-2" data-name="Layer 1"><g class="cls-2"><g class="cls-3"><g class="cls-4"><path class="cls-5" d="M4,20.34H1.81l0,0L.72,18.46v0l1.08-1.87H4v0l1.07,1.87v0Zm-2.13-.08H3.93l1-1.8-1-1.8H1.86l-1,1.8Z" transform="translate(3.68 3.48)"/><path class="cls-5" d="M9.72,20H8v0L7.1,18.46v0L8,17H9.72v0l.86,1.49v0ZM8,19.9H9.67l.84-1.44L9.67,17H8l-.83,1.44Z" transform="translate(3.68 3.48)"/><path class="cls-5" d="M6.09,24.53H4.23l-.91-1.58v0l.91-1.58H6.09v0L7,22.94v0Zm-1.8-.07H6.05l.88-1.52-.88-1.53H4.29l-.88,1.53Z" transform="translate(3.68 3.48)"/><path class="cls-5" d="M3.77,27.54H2.7v0l-.53-.9h0l.52-.91H3.77l.53.91h0Zm-1-.05h1l.51-.87-.51-.88h-1l-.51.88Z" transform="translate(3.68 3.48)"/><path class="cls-5" d="M1.09,23.7H.19l-.45-.76h0l.44-.77H1.1l.44.77h0Zm-.88,0h.86l.43-.74-.43-.75H.21l-.42.75Z" transform="translate(3.68 3.48)"/><path class="cls-5" d="M9.62,23.77h-1l-.5-.87h0L8.59,22h1l.51.88h0Zm-1,0h1l.49-.84L9.59,22h-1l-.48.85Z" transform="translate(3.68 3.48)"/><path class="cls-5" d="M11.41,21.1h-1l-.51-.88h0l.51-.88h1l.51.88h0Zm-1,0h1l.49-.85-.49-.84h-1l-.49.84Z" transform="translate(3.68 3.48)"/><path class="cls-5" d="M11.13,15.36H10l-.57-1h0l.57-1h1.15l.56,1h0Zm-1.12,0H11.1l.55-1-.55-.94H10l-.54.94Z" transform="translate(3.68 3.48)"/><path class="cls-5" d="M5.08,11.85H4.44l-.32-.54h0l.31-.55h.65l.31.55h0Zm-.62,0h.61l.3-.52-.3-.53H4.46l-.31.53Z" transform="translate(3.68 3.48)"/><path class="cls-5" d="M.88,14.79H0L-.5,14h0L0,13.2H.88l.45.79h0Zm-.9,0H.85L1.29,14l-.44-.76H0L-.45,14Z" transform="translate(3.68 3.48)"/><path class="cls-5" d="M-1.35,17.45h-1l-.5-.85h0l.49-.86h1l.49.86h0Zm-1,0h1l.47-.82-.47-.83h-1l-.47.83Z" transform="translate(3.68 3.48)"/><path class="cls-5" d="M7.22,15.67H5.71L5,14.37H5l.75-1.29H7.23L8,14.37v0Zm-1.47-.06H7.19l.71-1.24-.71-1.24H5.75L5,14.37Z" transform="translate(3.68 3.48)"/><polygon class="cls-5" points="5.51 20.16 4.51 18.25 4.56 18.22 5.56 20.13 5.51 20.16"/><polygon class="cls-5" points="9.41 16.6 8.73 15.31 8.77 15.29 9.45 16.58 9.41 16.6"/><rect class="cls-5" x="8.65" y="21.91" width="2.16" height="0.06"/><polygon class="cls-5" points="4.77 25.68 4.72 25.66 5.51 23.73 5.56 23.75 4.77 25.68"/><rect class="cls-5" x="5.18" y="26.38" width="1.88" height="0.06"/><polygon class="cls-5" points="7.45 29.23 7.39 29.21 7.93 27.96 7.99 27.98 7.45 29.23"/><polygon class="cls-5" points="11.67 20.52 10.86 19.13 10.9 19.1 11.71 20.49 11.67 20.52"/><rect class="cls-5" x="11.6" y="17.81" width="1.53" height="0.06"/><path class="cls-5" d="M3.15,6.12H1l0,0L-.11,4.23v0L1,2.35H3.15l0,0L4.24,4.23v0ZM1,6H3.1l1-1.8-1-1.8H1L0,4.23Z" transform="translate(3.68 3.48)"/><path class="cls-5" d="M8.88,5.74H7.13l-.86-1.5h0l.86-1.5H8.88v0l.87,1.49v0Zm-1.7-.07H8.84l.84-1.44L8.84,2.79H7.18L6.35,4.23Z" transform="translate(3.68 3.48)"/><path class="cls-5" d="M5.26,10.31H3.41v0L2.49,8.71v0l.91-1.58H5.26v0l.91,1.58v0Zm-1.8-.08H5.22l.87-1.52L5.22,7.19H3.46L2.58,8.71Z" transform="translate(3.68 3.48)"/><path class="cls-5" d="M2.93,13.31H1.87l-.53-.91h0l.52-.91H2.94l.53.91h0Zm-1,0h1l.51-.88-.51-.87h-1l-.51.87Z" transform="translate(3.68 3.48)"/><path class="cls-5" d="M.26,9.48h-.9l-.45-.77h0l.44-.77h.9l.45.77h0Zm-.88,0H.24L.67,8.7.24,8H-.62L-1,8.7Z" transform="translate(3.68 3.48)"/><path class="cls-5" d="M8.79,9.55h-1l-.5-.88h0l.51-.88h1l.51.88h0Zm-1,0h1l.49-.85-.49-.85h-1l-.49.85Z" transform="translate(3.68 3.48)"/><path class="cls-5" d="M10.58,6.88h-1L9,6H9l.51-.88h1l.51.88h0Zm-1,0h1L11,6l-.49-.85h-1L9.09,6Z" transform="translate(3.68 3.48)"/><path class="cls-5" d="M10.3,1.14H9.15l-.57-1h0l.56-1H10.3l.57,1h0Zm-1.12,0h1.09l.55-.94L10.27-.8H9.18l-.54,1Z" transform="translate(3.68 3.48)"/><path class="cls-5" d="M4.25-2.37H3.61l-.32-.55h0l.32-.55h.65l.31.55h0Zm-.62,0h.61l.3-.53-.3-.53H3.63l-.31.53Z" transform="translate(3.68 3.48)"/><path class="cls-5" d="M.05.56H-.88l-.45-.78h0L-.87-1H.05L.5-.23h0Zm-.9,0H0L.46-.23,0-1H-.85l-.44.75Z" transform="translate(3.68 3.48)"/><path class="cls-5" d="M-2.18,3.23h-1l-.5-.86h0l.49-.85h1l.49.85h0Zm-1,0h1l.47-.83-.47-.82h-1l-.47.82Z" transform="translate(3.68 3.48)"/><path class="cls-5" d="M6.39,1.45H4.89v0L4.14.15v0l.75-1.29h1.5v0L7.14.15h0ZM4.92,1.39H6.36L7.07.15,6.36-1.1H4.92L4.21.15Z" transform="translate(3.68 3.48)"/><polygon class="cls-5" points="4.68 5.93 3.68 4.02 3.73 4 4.73 5.91 4.68 5.93"/><polygon class="cls-5" points="8.58 2.38 7.9 1.08 7.94 1.06 8.62 2.35 8.58 2.38"/><rect class="cls-5" x="7.82" y="7.69" width="2.16" height="0.06"/><polygon class="cls-5" points="3.94 11.45 3.89 11.43 4.68 9.51 4.73 9.53 3.94 11.45"/><rect class="cls-5" x="4.34" y="12.16" width="1.88" height="0.06"/><polygon class="cls-5" points="6.61 15.01 6.56 14.99 7.1 13.73 7.15 13.76 6.61 15.01"/><polygon class="cls-5" points="10.84 6.29 10.02 4.91 10.07 4.88 10.88 6.26 10.84 6.29"/><rect class="cls-5" x="10.77" y="3.59" width="1.53" height="0.06"/></g><path class="cls-6" d="M4.18,19.23h0l.88-1.52v0H6.83l.88,1.52v0l-.88,1.51v0H5.06Zm3.45,0-.84-1.47H5.1l-.85,1.47.85,1.46H6.79Z" transform="translate(3.68 3.48)"/><path class="cls-6" d="M-.3,19.23h0L.39,18H1.82l.7,1.21v0l-.7,1.21H.4Zm2.76,0L1.78,18H.43l-.68,1.18.68,1.17H1.78Z" transform="translate(3.68 3.48)"/><path class="cls-6" d="M2.61,22.87h0l.74-1.29H4.85l.74,1.28v0l-.74,1.28v0H3.35Zm2.92,0-.72-1.24H3.38l-.71,1.24.71,1.24H4.81Z" transform="translate(3.68 3.48)"/><path class="cls-6" d="M4.81,25.86h0l.42-.74H6.1l.43.74h0l-.42.74H5.24Zm1.68,0-.41-.71H5.26l-.41.71.41.72h.82Z" transform="translate(3.68 3.48)"/><path class="cls-6" d="M7.05,22.86h0l.36-.63h.73l.36.62h0l-.36.62H7.41Zm1.42,0-.34-.6h-.7l-.35.6.35.6h.7Z" transform="translate(3.68 3.48)"/><path class="cls-6" d="M.07,22.83h0l.41-.72h.84l.41.71h0l-.41.71H.48Zm1.62,0-.4-.69H.5l-.4.69.4.69h.79Z" transform="translate(3.68 3.48)"/><path class="cls-6" d="M-1.39,20.65h0l.42-.71h.83l.42.71h0l-.41.72H-1Zm1.62,0L-.16,20H-1l-.4.69.4.69h.8Z" transform="translate(3.68 3.48)"/><path class="cls-6" d="M-1.21,15.9h0l.46-.8H.18l.46.79h0l-.46.8H-.75Zm1.81,0-.44-.77H-.73l-.44.77.44.77H.16Z" transform="translate(3.68 3.48)"/><path class="cls-6" d="M3.91,13.39h0l.25-.45h.53l.25.44H5l-.26.45H4.17Zm1,0L4.67,13H4.18l-.25.43.25.43h.49Z" transform="translate(3.68 3.48)"/><path class="cls-6" d="M7.22,15.59h0L7.58,15h.75l.37.64h0l-.36.63H7.59Zm1.45,0L8.31,15H7.6l-.35.62.35.61h.71Z" transform="translate(3.68 3.48)"/><path class="cls-6" d="M9,17.7H9l.4-.69h.82l.4.69h0l-.4.7H9.4Zm1.58,0L10.19,17H9.42L9,17.69l.39.67h.77Z" transform="translate(3.68 3.48)"/><path class="cls-6" d="M1.82,15.9h0l.61-1.05H3.65l.6,1.05h0l-.6,1.05H2.43Zm2.38,0-.58-1H2.45l-.58,1,.58,1H3.62Z" transform="translate(3.68 3.48)"/><polygon class="cls-6" points="10.49 21.25 11.3 19.69 11.26 19.67 10.45 21.23 10.49 21.25"/><polygon class="cls-6" points="7.32 18.35 7.87 17.3 7.84 17.29 7.29 18.34 7.32 18.35"/><rect class="cls-6" x="6.18" y="22.67" width="1.75" height="0.05"/><polygon class="cls-6" points="11.09 25.74 11.13 25.72 10.49 24.15 10.45 24.17 11.09 25.74"/><rect class="cls-6" x="9.23" y="26.31" width="1.53" height="0.05"/><polygon class="cls-6" points="8.91 28.63 8.96 28.61 8.52 27.59 8.48 27.61 8.91 28.63"/><polygon class="cls-6" points="5.48 21.54 6.14 20.41 6.1 20.39 5.44 21.52 5.48 21.54"/><rect class="cls-6" x="4.29" y="19.34" width="1.24" height="0.05"/><path class="cls-6" d="M4.86,7.66v0l.87-1.51v0H7.51l.87,1.52h0L7.52,9.16v0H5.73Zm3.45,0L7.46,6.18H5.77L4.93,7.64l.84,1.47H7.46Z" transform="translate(3.68 3.48)"/><path class="cls-6" d="M.37,7.66v0l.7-1.21H2.49l.7,1.21h0L2.5,8.86H1.07Zm2.76,0L2.46,6.47H1.11L.43,7.64l.68,1.18H2.46Z" transform="translate(3.68 3.48)"/><path class="cls-6" d="M3.28,11.3h0L4,10H5.52l.74,1.28v0l-.74,1.28v0H4Zm2.92,0-.71-1.24H4.06l-.72,1.24.72,1.24H5.49Z" transform="translate(3.68 3.48)"/><path class="cls-6" d="M5.49,14.29h0l.43-.74h.87l.42.74h0L6.78,15H5.91Zm1.68,0-.41-.71H5.93l-.41.71.41.71h.83Z" transform="translate(3.68 3.48)"/><path class="cls-6" d="M7.73,11.29h0l.36-.63h.74l.36.62h0l-.36.62H8.09Zm1.42,0-.35-.61H8.11l-.35.61.35.6H8.8Z" transform="translate(3.68 3.48)"/><path class="cls-6" d="M.74,11.25h0l.41-.72H2l.41.72h0L2,12H1.15Zm1.63,0L2,10.56h-.8l-.39.69.39.69H2Z" transform="translate(3.68 3.48)"/><path class="cls-6" d="M-.72,9.08h0l.41-.71H.53l.41.71H1l-.41.72H-.3Zm1.63,0-.4-.69H-.28l-.4.69.4.69H.51Z" transform="translate(3.68 3.48)"/><path class="cls-6" d="M-.54,4.33h0l.46-.8H.85l.46.8h0l-.46.8H-.08Zm1.82,0L.83,3.55H-.06l-.44.77.44.77H.83Z" transform="translate(3.68 3.48)"/><path class="cls-6" d="M4.58,1.82h0l.26-.45h.52l.26.44h0l-.25.44H4.84Zm1,0-.25-.43h-.5l-.24.43.24.43h.5Z" transform="translate(3.68 3.48)"/><path class="cls-6" d="M7.9,4h0l.37-.63H9L9.38,4h0L9,4.65H8.26ZM9.35,4,9,3.4H8.28L7.93,4l.35.62H9Z" transform="translate(3.68 3.48)"/><path class="cls-6" d="M9.67,6.13h0l.4-.7h.82l.4.69h0l-.4.7h-.82Zm1.58,0-.38-.67h-.78l-.39.67.39.67h.78Z" transform="translate(3.68 3.48)"/><path class="cls-6" d="M2.5,4.33h0l.6-1.05H4.32l.61,1h0l-.61,1H3.1Zm2.38,0-.58-1H3.13l-.58,1,.58,1H4.3Z" transform="translate(3.68 3.48)"/><polygon class="cls-6" points="11.16 9.67 11.98 8.12 11.94 8.1 11.12 9.65 11.16 9.67"/><polygon class="cls-6" points="7.99 6.78 8.55 5.73 8.51 5.71 7.96 6.77 7.99 6.78"/><rect class="cls-6" x="6.85" y="11.1" width="1.75" height="0.05"/><polygon class="cls-6" points="11.76 14.17 11.8 14.15 11.16 12.58 11.12 12.6 11.76 14.17"/><rect class="cls-6" x="9.91" y="14.74" width="1.53" height="0.05"/><polygon class="cls-6" points="9.59 17.06 9.63 17.04 9.19 16.02 9.15 16.04 9.59 17.06"/><polygon class="cls-6" points="6.16 9.97 6.82 8.84 6.78 8.82 6.12 9.94 6.16 9.97"/><rect class="cls-6" x="4.97" y="7.77" width="1.24" height="0.05"/></g></g></g></g></svg>